<?xml version="1.0" standalone="no"?>
<!DOCTYPE svg PUBLIC "-//W3C//DTD SVG 20010904//EN"
 "http://www.w3.org/TR/2001/REC-SVG-20010904/DTD/svg10.dtd">
<svg version="1.0" xmlns="http://www.w3.org/2000/svg"
 width="512.000000pt" height="512.000000pt" viewBox="0 0 512.000000 512.000000"
 preserveAspectRatio="xMidYMid meet">

<g transform="translate(0.000000,512.000000) scale(0.100000,-0.100000)"
fill="#000000" stroke="none">
<path d="M1084 4812 c-6 -4 -67 -106 -135 -227 l-124 -220 -3 -1430 -2 -1430
21 -18 c19 -15 48 -17 280 -17 246 0 260 1 279 20 20 20 20 29 18 1443 l-3
1422 -119 215 c-65 118 -125 223 -134 233 -15 17 -58 23 -78 9z"/>
<path d="M3065 4375 c-454 -83 -780 -342 -953 -758 -57 -136 -65 -222 -51
-521 19 -412 3 -828 -41 -1083 -25 -143 -25 -171 3 -221 12 -22 103 -118 203
-214 289 -277 587 -554 611 -566 35 -19 69 -14 102 14 l31 26 0 586 0 585 -26
44 c-23 39 -39 50 -162 112 -212 106 -224 124 -230 326 -4 127 -2 142 15 164
l19 24 155 -61 c246 -96 468 -162 544 -162 72 0 405 104 598 186 86 37 113 37
123 -1 3 -13 4 -87 2 -164 -3 -136 -4 -140 -33 -183 -25 -36 -51 -54 -167
-113 -154 -79 -173 -94 -199 -150 -17 -37 -19 -78 -19 -605 0 -610 0 -603 54
-628 56 -28 79 -13 291 184 366 341 593 564 609 598 21 44 20 99 -3 238 -34
198 -44 400 -40 768 6 597 5 648 -15 720 -9 36 -37 107 -62 159 -180 381 -501
621 -933 696 -102 18 -329 18 -426 0z"/>
<path d="M574 1266 c-17 -13 -19 -27 -19 -126 0 -99 2 -113 19 -126 15 -11 59
-14 192 -14 l173 0 3 -333 c2 -265 6 -337 17 -350 11 -14 36 -17 160 -17 101
0 151 4 159 12 9 9 12 100 12 350 l0 338 176 0 c102 0 183 4 195 10 17 10 19
22 19 130 0 108 -2 120 -19 130 -13 6 -202 10 -543 10 -437 0 -527 -2 -544
-14z"/>
</g>
</svg>
