<svg width="5494.999999999999" height="5352" xmlns="http://www.w3.org/2000/svg">
 <defs>
  <style type="text/css">
   <![CDATA[
    .str0 {stroke:black;stroke-width:7.62}
    .str1 {stroke:red;stroke-width:20}
    .fil0 {fill:none}
    .fil4 {fill:black}
    .fil6 {fill:lime}
    .fil5 {fill:#4D4D4D}
    .fil2 {fill:#CCCCCC}
    .fil7 {fill:#FDC903}
    .fil3 {fill:#1E1A16;fill-rule:nonzero}
    .fil1 {fill:#294BAC;fill-rule:nonzero}
   ]]>
  </style>
 </defs>
 <g>
  <title>Layer 1</title>
  <g stroke="null" id="Warstwa_x0020_2">
   <metadata stroke="null" id="CorelCorpID_1Corel-Layer"/>
   <g stroke="null" id="_292730416">
    <path stroke="null" id="svg_50" d="m2608.9377,5325.28709c-986.86133,-375.13509 -1696.3024,-1068.63315 -2124.01956,-1942.48463c-452.54594,-924.35043 -589.60082,-2050.69667 -405.86783,-3215.62286c7.61416,-48.30335 32.77399,-90.01988 69.18954,-119.50374c36.7466,-29.79752 84.08681,-47.67603 135.39963,-47.67603l4928.0167,0c51.64387,0 98.98408,17.87851 135.39963,47.67603c36.41555,29.48386 61.90643,71.20039 69.52059,119.50374c183.40194,1164.92619 46.67811,2291.27244 -405.86783,3215.62286c-428.04821,873.85147 -1137.48928,1567.34954 -2124.35061,1942.48463c-46.01601,17.56485 -92.36307,26.34728 -138.71013,26.34728c-46.01601,0 -92.36307,-8.78243 -138.71013,-26.34728z" class="fil1"/>
    <path stroke="null" id="svg_51" d="m3011.82608,3635.29724l1.9863,68.06381c7.61416,209.20995 27.80824,513.45831 27.80824,513.45831c0,0 68.85849,-55.20383 99.97723,-71.20039c31.11874,-16.31022 103.28773,-31.36581 179.42933,-9.7234c76.1416,21.95607 301.25589,79.04184 301.25589,79.04184c0,0 88.39046,-114.17155 148.31059,-185.99925c60.25118,-71.82771 326.41572,-479.26958 354.22396,-537.92365c27.80824,-58.65407 65.21693,-148.04662 99.31513,-221.12896c34.09819,-73.08234 115.86765,-285.42887 124.80601,-344.71025c8.60731,-59.59504 2.31735,-91.90182 -30.12559,-112.91692c-32.77399,-21.01509 -202.60286,-125.7769 -232.06635,-147.73297c-29.46349,-21.64241 -25.49088,-39.83458 0,-62.41796c14.89727,-13.17364 54.95437,-53.63554 87.06626,-87.82427c2.31735,-8.46877 2.31735,-31.36581 -12.57992,-30.11118c-15.55937,1.25463 -9.60046,1.88195 -10.59361,1.25463l-249.94307,13.80096c-19.86303,1.25463 -37.4087,-13.4873 -38.40185,-32.30678l-3.97261,-63.67259c-0.99315,-19.13314 14.23517,-35.44337 34.42924,-36.38434l268.81295,-15.05559c19.86303,-0.94097 37.4087,13.80096 38.40185,32.62044l2.6484,44.22579l0.33105,5.64585c0.33105,13.17364 20.52513,11.29169 21.84933,1.56829c0,-0.62732 0,-0.94097 0.33105,-1.25463c1.9863,-23.52436 -0.33105,-53.94919 -3.97261,-69.6321c-5.62786,-23.2107 -41.3813,-44.22579 -66.21009,-60.22236c-24.49773,-15.68291 -48.33336,-42.97116 -76.8037,-64.92723c-28.47034,-21.64241 -28.80139,-46.4214 -26.48403,-81.86476c2.31735,-35.75702 3.64155,-103.19352 3.64155,-103.19352c0,0 -58.26488,-3.13658 -84.41786,-17.2512c-25.82193,-13.80096 -31.11874,-46.4214 -31.11874,-61.16333c0,-14.74193 5.62786,-44.53945 5.62786,-44.53945c0,0 0,-56.77212 1.65525,-101.62523c1.9863,-44.53945 3.64155,-101.62523 5.29681,-122.013c1.3242,-20.38778 2.6484,-30.42484 18.20777,-34.81605c15.55937,-4.39121 38.0708,-9.7234 38.0708,-9.7234c0,0 -26.81508,-123.89495 -95.01147,-254.37672c-68.19639,-130.48177 -183.07089,-233.36163 -308.20795,-343.45562c-125.13706,-110.09399 -353.89291,-196.66363 -353.89291,-196.66363c1.3242,-4.39121 -16.55252,57.08577 -27.47719,130.48177c-11.25571,73.396 -47.00916,378.27167 -69.18954,531.65048c-22.18038,153.06515 -56.60962,522.5544 -78.79,730.82338c-11.25571,104.13449 -20.52513,252.18111 -28.80139,407.12822l238.68736,-345.33757l0.33105,0c3.3105,-5.01853 8.27626,-9.09608 14.56622,-11.60535l573.7104,-235.87089c16.55252,-6.58682 36.0845,0.62732 43.03656,16.31022c7.28311,15.99656 -0.33105,34.18873 -16.88357,41.08921l-564.77203,231.79334l-273.77871,396.46384c-4.96576,7.21414 -12.24887,11.60535 -20.52513,13.4873c-5.95891,120.44471 -11.58677,239.94845 -16.88357,342.82831c-12.57992,248.41722 -13.57307,279.46937 -13.57307,424.37941c11.91782,-16.31022 31.78084,-26.9746 54.29227,-26.9746c36.41555,0 65.87904,27.91557 65.87904,62.41796c0,34.50239 -29.46349,62.41796 -65.87904,62.41796c-22.51143,0 -42.0434,-10.35072 -53.96122,-26.66094c0,6.90048 0,14.11461 0.33105,21.32875z" class="fil2 str0"/>
    <path stroke="null" id="svg_52" d="m2608.9377,5325.28709c-986.86133,-375.13509 -1696.3024,-1068.63315 -2124.01956,-1942.48463c-452.54594,-924.35043 -589.60082,-2050.69667 -405.86783,-3215.62286c7.61416,-48.30335 32.77399,-90.01988 69.18954,-119.50374c36.7466,-29.79752 84.08681,-47.67603 135.39963,-47.67603l4928.0167,0c51.64387,0 98.98408,17.87851 135.39963,47.67603c36.41555,29.48386 61.90643,71.20039 69.52059,119.50374c183.40194,1164.92619 46.67811,2291.27244 -405.86783,3215.62286c-428.04821,873.85147 -1137.48928,1567.34954 -2124.35061,1942.48463c-46.01601,17.56485 -92.36307,26.34728 -138.71013,26.34728c-46.01601,0 -92.36307,-8.78243 -138.71013,-26.34728zm-2049.20216,-1975.41873c419.4409,856.28662 1113.9847,1535.67007 2079.98985,1902.96371c36.0845,13.4873 72.16899,20.38778 107.92244,20.38778c36.0845,0 72.16899,-6.90048 107.92244,-20.38778c966.00516,-367.29364 1660.88001,-1046.67709 2079.98985,-1902.96371c445.59388,-910.23581 580.3314,-2021.21281 399.24682,-3171.08341c-4.63471,-29.1702 -19.86303,-54.26285 -41.71235,-72.14136c-21.51828,-17.56485 -49.98861,-28.22923 -81.43841,-28.22923l-4928.0167,0c-31.11874,0 -59.58908,10.66438 -81.43841,28.22923c-21.51828,17.87851 -36.7466,42.97116 -41.3813,72.14136c-181.41564,1149.8706 -46.67811,2260.8476 398.91577,3171.08341z" class="fil3"/>
    <polygon stroke="null" id="svg_53" points="3612.35107421875,3270.19921875 3622.94482421875,3060.0478515625 3745.43408203125,3064.1259765625 3744.77197265625,3262.671875 3939.76025390625,3251.693359375 3930.49072265625,3386.56640625 3744.44091796875,3390.0166015625 3743.44775390625,3729.39453125 3588.84716796875,3729.39453125 3606.06201171875,3392.8388671875 3424.97705078125,3396.2900390625 3424.97705078125,3280.5498046875 " class="fil4"/>
    <polygon stroke="null" id="svg_54" points="3631.22119140625,3288.0771484375 3641.81494140625,3079.4951171875 3725.57080078125,3082.318359375 3724.90869140625,3282.7451171875 3918.57275390625,3271.767578125 3911.95166015625,3368.060546875 3724.57763671875,3371.5107421875 3723.58447265625,3710.5751953125 3609.70263671875,3710.5751953125 3626.91748046875,3373.392578125 3444.84033203125,3377.15625 3444.84033203125,3298.115234375 " class="fil5"/>
    <path stroke="null" id="svg_55" d="m2365.28459,812.37432c0,0 68.85849,93.47011 115.86765,108.21205c47.34021,14.42827 127.12337,-14.74193 148.31059,-11.29169c20.85618,3.45024 20.85618,3.45024 20.85618,3.45024c0,0 -14.23517,10.03706 -26.81508,25.40631c-12.57992,15.36925 -20.85618,30.11118 -20.85618,30.11118c0,0 59.25803,8.46877 101.63248,3.13658c42.0434,-5.33219 83.09366,12.23267 128.44757,36.07068c32.11189,16.93754 60.58223,41.08921 76.8037,60.22236l39.72605,31.67947c-0.33105,-29.1702 -3.97261,-63.04528 -35.4224,-102.25254c-39.395,-48.93066 -96.00462,-64.61357 -121.82656,-79.04184c-25.82193,-14.42827 -69.18954,-51.12627 -89.38362,-93.15646c-20.19408,-42.03019 -30.78769,-72.45502 -67.86534,-95.0384c-37.07765,-22.58338 -69.18954,-9.40974 -96.00462,-10.35072c-27.14614,-0.62732 -43.69866,-4.07756 -43.69866,-4.07756c0,0 46.01601,-48.30335 101.30143,-52.69456c54.95437,-4.07756 96.00462,-0.94097 120.83341,13.17364c24.49773,14.42827 32.77399,21.01509 30.78769,55.20383c-0.99315,13.80096 -0.99315,26.03362 1.3242,37.32531l16.88357,-8.15511c-0.99315,-2.82292 -1.65525,-5.9595 -1.9863,-9.09608c-1.9863,-30.73849 27.80824,-77.15989 92.36307,-75.90526l0.33105,0l1.9863,-31.36581l-1.3242,-0.31366c0,0 11.91782,-101.62523 0.33105,-160.27929c-11.58677,-58.65407 -23.17353,-189.13584 -23.17353,-189.13584c0,0 31.11874,-6.27316 52.96807,21.95607c22.18038,28.22923 15.89042,49.87164 15.89042,49.87164c0,0 52.63702,14.74193 73.4932,37.95263c20.52513,23.2107 6.62101,58.65407 6.62101,58.65407c0,0 -28.80139,-14.42827 -48.00231,-14.74193c-19.20092,-0.31366 -39.06395,7.52779 -36.7466,17.87851c1.9863,10.66438 6.62101,43.28482 33.10504,38.26629c26.15298,-5.33219 45.02286,-14.11461 45.02286,-14.11461c0,0 19.53198,24.15167 40.38815,37.95263c20.52513,13.80096 40.7192,17.56485 64.55483,2.50926c23.50458,-14.74193 22.84248,-26.34728 22.84248,-26.34728c-11.25571,-0.62732 -20.85618,12.23267 -51.97492,-4.39121c-31.11874,-16.62388 -57.27172,-82.80574 -57.27172,-82.80574c0,0 68.85849,-27.28825 102.95668,-17.56485c34.09819,10.03706 30.78769,25.71996 39.06395,32.9341c0.99315,-10.66438 -12.91097,-19.76046 4.96576,-49.24432c17.54567,-29.48386 87.39731,-54.57651 87.39731,-54.57651c0,0 28.80139,65.24089 18.20777,97.54767c-10.59361,32.62044 -26.81508,29.1702 -36.41555,36.38434c9.60046,0 19.20092,-12.85998 50.31967,3.7639c31.11874,16.62388 57.27172,82.80574 57.27172,82.80574c0,0 -68.85849,27.28825 -102.95668,17.56485c-34.09819,-10.03706 -30.78769,-25.71996 -39.06395,-32.9341c0,0 -9.26941,7.52779 -4.30366,34.18873c4.63471,26.34728 21.51828,37.63897 46.34706,42.6575c24.82878,4.70487 56.60962,1.25463 56.60962,1.25463c0,0 6.28996,19.4468 20.19408,41.08921c14.23517,21.64241 42.37446,2.50926 51.97492,-3.45024c9.60046,-5.9595 1.9863,-24.46533 -11.25571,-37.63897c-13.57307,-13.17364 -44.36076,-23.2107 -44.36076,-23.2107c0,0 17.54567,-33.56142 49.65756,-35.44337c31.78084,-1.88195 79.12105,24.46533 79.12105,24.46533c0,0 12.57992,-19.13314 49.32651,-23.2107c36.7466,-4.39121 53.29912,21.32875 53.29912,21.32875c0,0 -108.25349,81.55111 -161.22156,113.85789c-52.96807,32.30678 -122.48866,110.09399 -122.48866,110.09399l-1.3242,-0.62732l-25.82193,64.61357c-11.25571,43.28482 -20.85618,87.19695 -27.80824,131.7364c-5.95891,39.83458 -10.59361,79.98282 -15.89042,120.13105c-7.61416,60.84967 -15.22832,121.69934 -22.84248,182.86267c-9.60046,76.21892 -19.20092,152.7515 -30.12559,228.65676c-8.60731,58.96772 -15.22832,117.93545 -21.84933,176.90317c-8.27626,76.53258 -16.22147,152.7515 -24.16668,229.28407c-5.29681,53.94919 -10.59361,108.21205 -16.22147,162.16124l-12.91097,97.54767c0,0 0.99315,-0.94097 -16.22147,-22.89704c-16.88357,-22.26973 -46.67811,-153.06515 -45.68496,-183.80365c0.6621,-30.73849 -1.9863,-104.76181 -1.9863,-104.76181c0,0 -65.54799,138.00956 -96.99778,176.27585c-31.44979,38.26629 -67.86534,60.53601 -90.70782,86.56964c-22.51143,26.34728 -34.09819,37.63897 -34.09819,37.63897c0,0 -2.6484,-18.81949 -6.28996,-40.14824c-3.64155,-21.01509 8.27626,-117.30813 12.57992,-144.59639c4.63471,-27.28825 43.36761,-130.16811 43.36761,-130.16811c0,0 -33.43609,34.81605 -53.96122,48.61701c-20.85618,13.4873 -44.02971,37.63897 -72.83109,61.16333c-28.80139,23.52436 -70.18269,44.22579 -90.70782,58.65407c-20.52513,14.42827 -61.90643,41.71653 -61.90643,41.71653c0,0 -13.57307,-22.89704 -10.92466,-44.22579c2.6484,-21.32875 -0.6621,-18.81949 15.22832,-58.65407c16.22147,-39.83458 47.67126,-84.37403 86.40416,-118.2491c38.7329,-34.18873 125.79916,-92.8428 166.18732,-135.18664c40.38815,-42.6575 85.07996,-112.60326 93.35622,-134.55933c7.94521,-22.26973 11.58677,-47.67603 11.58677,-47.67603l-32.44294,2.50926c0,0 11.91782,-29.79752 31.44979,-53.63554c19.86303,-23.83802 32.44294,-70.57307 46.01601,-108.83936c13.24202,-38.26629 10.59361,-137.06859 10.59361,-137.06859l2.6484,-0.62732l-15.22832,-31.36581c-49.65756,-15.05559 -88.72152,-30.42484 -123.81286,-28.22923c-38.40185,2.19561 -97.32883,14.42827 -120.17131,26.66094c-22.84248,12.23267 -39.06395,9.40974 -39.06395,9.40974c0,0 -5.95891,-21.95607 8.27626,-35.12971c14.23517,-13.4873 40.0571,-46.73506 118.185,-50.49895c77.79685,-3.7639 98.32198,11.91901 132.08912,13.4873c9.26941,0.31366 16.88357,1.25463 22.84248,1.56829l-25.49088,-31.99313c-2.31735,-1.56829 -4.96576,-3.45024 -7.94521,-5.64585c-36.41555,-28.54289 -87.72836,-71.82771 -150.2969,-81.86476c-62.23748,-10.03706 -215.18278,-17.87851 -258.88144,-34.50239c-44.02971,-16.31022 -88.05941,-60.53601 -105.60509,-97.23401c-17.87672,-36.698 -15.55937,-83.1194 -15.55937,-83.1194zm-579.33825,-410.57846c0,0 -68.85849,15.36925 -136.39278,89.70622c-67.20324,74.33697 -115.20555,172.82561 -118.51605,255.00404c-2.97945,81.86476 1.65525,100.05693 14.56622,165.29782c12.91097,65.24089 72.16899,165.61148 72.16899,165.61148c0,0 116.8608,28.54289 153.6074,47.04872c36.7466,18.19217 88.05941,66.49552 88.05941,66.49552c0,0 -92.69412,-49.87164 -118.51605,-56.1448c-25.49088,-5.9595 -78.45895,-15.05559 -112.2261,-18.19217c-33.43609,-2.82292 -94.34937,-10.66438 -94.34937,-10.66438c0,0 4.96576,30.73849 28.13929,70.88673c23.50458,40.4619 81.10736,128.59982 109.24664,135.18664c28.13929,6.90048 51.31282,7.84145 64.22378,14.42827c12.57992,6.90048 24.82878,17.56485 24.82878,17.56485c0,0 -46.67811,-12.23267 -112.2261,-11.29169c-65.87904,0.62732 -113.88135,20.38778 -149.30374,28.85655c-35.4224,8.46877 -66.54114,18.19217 -66.54114,18.19217c0,0 22.51143,34.18873 41.71235,55.51748c19.20092,21.32875 93.02517,89.70622 124.14391,104.13449c31.44979,14.42827 43.36761,3.7639 76.47265,-1.56829c32.77399,-5.33219 59.92013,-5.33219 59.92013,-5.33219c0,0 -68.85849,23.52436 -100.97038,39.52092c-32.11189,15.99656 -105.93614,49.24432 -130.76492,59.28138c-24.82878,9.7234 -77.79685,17.2512 -77.79685,17.2512c0,0 20.19408,44.85311 64.22378,65.55454c44.02971,20.38778 115.5366,55.51748 154.60055,63.04528c39.395,7.52779 52.96807,4.39121 76.47265,-5.33219c23.17353,-10.03706 33.43609,-15.36925 45.68496,-15.99656c11.91782,-0.62732 22.18038,3.13658 22.18038,3.13658c0,0 -28.80139,18.81949 -56.94067,30.42484c-27.80824,11.29169 -54.29227,18.81949 -84.08681,44.53945c-29.46349,26.03362 -34.42924,41.08921 -71.17584,70.88673c-37.07765,29.48386 -73.16215,60.84967 -73.16215,60.84967c0,0 43.36761,39.20726 134.73753,45.48042c91.36992,5.9595 165.19416,-5.33219 165.19416,-5.33219c0,0 15.89042,-49.55798 35.4224,-57.08577c19.20092,-7.52779 33.43609,-8.15511 33.43609,-8.15511c0,0 -7.94521,9.09608 -23.83563,27.28825c-16.22147,18.19217 -34.42924,63.67259 -49.65756,88.13793c-15.55937,24.15167 -22.51143,41.08921 -37.73975,65.24089c-15.22832,24.46533 -51.31282,65.24089 -51.31282,65.24089c0,0 36.0845,10.66438 97.65988,6.27316c61.90643,-4.70487 138.04803,-18.19217 153.93845,-25.09265c16.22147,-6.90048 24.16668,-18.19217 31.44979,-35.12971c6.95206,-16.62388 18.20777,-37.01166 34.42924,-55.20383c15.89042,-18.50583 37.73975,-31.99313 37.73975,-31.99313c0,0 -19.20092,37.32531 -33.76714,65.24089c-14.56622,28.22923 -14.56622,30.42484 -23.17353,63.98625c-8.93836,33.24776 -16.88357,64.29991 -27.47719,92.52914c-10.26256,28.22923 -36.0845,90.33353 -36.0845,90.33353c0,0 57.93383,2.50926 101.96353,-15.99656c44.02971,-18.19217 70.51374,-34.81605 101.96353,-49.24432c31.11874,-14.42827 59.92013,-35.75702 67.86534,-50.1853c8.27626,-14.42827 4.96576,-39.52092 12.24887,-53.94919c7.28311,-14.42827 22.51143,-49.24432 22.51143,-49.24432c0,0 -1.65525,51.43993 -4.96576,75.27794c-3.3105,23.52436 -12.91097,55.20383 -13.57307,72.76868c-0.99315,17.56485 -7.94521,72.14136 -12.91097,95.0384c-4.63471,22.89704 -12.91097,39.52092 -12.91097,39.52092c0,0 48.99546,-8.46877 77.79685,-26.66094c29.13244,-18.19217 81.10736,-42.6575 109.90874,-78.10087c28.80139,-35.75702 72.16899,-98.17499 89.05257,-127.03153c16.88357,-28.85655 26.48403,-41.71653 28.13929,-64.61357c1.65525,-22.58338 -17.54567,-43.91213 -13.57307,-78.10087c3.97261,-34.18873 6.28996,-52.3809 9.60046,-69.31844c2.97945,-16.62388 8.60731,-37.01166 8.60731,-37.01166c0,0 -27.14614,5.33219 -45.68496,14.42827c-18.20777,9.09608 -44.69181,33.24776 -102.62563,31.67947c-57.60277,-1.56829 -129.10967,-74.96429 -143.34484,-83.43306c-14.56622,-8.46877 -75.4795,-39.52092 -136.39278,-43.28482c-60.91328,-3.7639 -99.31513,19.76046 -118.8471,-32.62044c-19.20092,-52.3809 10.59361,-64.61357 31.44979,-85.315c20.85618,-20.38778 79.4521,-53.94919 72.83109,-90.33353c-6.28996,-36.38434 -45.68496,-66.18186 -65.54799,-81.86476c-20.19408,-15.99656 -75.4795,-66.18186 -69.18954,-93.47011c6.62101,-27.60191 99.64618,-41.08921 126.79231,-50.1853c27.14614,-9.09608 124.47496,-36.38434 119.50921,-118.56276c-4.96576,-82.17842 -75.4795,-138.32322 -121.16446,-168.74806c-45.68496,-30.42484 -104.94299,-53.94919 -124.14391,-64.61357c-19.20092,-10.66438 -77.79685,-51.43993 -77.79685,-51.43993c0,0 -3.97261,45.48042 7.94521,57.71309c11.91782,11.91901 42.37446,37.95263 42.37446,37.95263c0,0 -23.83563,5.9595 -36.0845,-3.13658c-11.91782,-9.09608 -23.17353,-26.66094 -32.77399,-53.94919c-9.60046,-27.28825 2.31735,-66.18186 9.60046,-88.13793c7.28311,-21.95607 33.43609,-89.0789 26.15298,-121.38569c-7.28311,-32.30678 -48.99546,-142.71444 -73.4932,-183.17633c-24.82878,-40.4619 -30.45664,-71.20039 -36.0845,-122.32666c-5.62786,-51.12627 16.55252,-144.59639 16.55252,-144.59639zm-280.06866,462.95936c0,0 22.18038,82.49208 32.77399,102.87986c10.59361,20.07412 27.80824,59.28138 27.80824,59.28138c0,0 -62.89958,4.07756 -97.99093,-26.34728c-34.7603,-30.11118 -94.34937,-122.64032 -107.26034,-150.86955c-12.57992,-28.22923 -36.0845,-115.73984 -38.0708,-159.02466c-2.31735,-43.28482 5.29681,-85.315 5.29681,-85.315c0,0 48.66441,116.68081 71.17584,149.92857c22.18038,33.24776 106.26719,109.46668 106.26719,109.46668zm-411.16463,-54.26285c0,0 103.94984,69.6321 151.95215,98.8023c47.67126,29.1702 152.9453,79.3555 168.83572,91.27451c15.89042,12.23267 51.97492,32.30678 81.76946,39.52092c29.79454,6.90048 98.65303,41.08921 98.65303,41.08921l-96.66673,-10.03706c0,0 -12.57992,23.2107 0,48.30335c12.91097,25.09265 74.48635,130.79543 91.36992,144.91004c17.21462,14.11461 48.00231,48.30335 48.00231,48.30335c0,0 -73.4932,0 -129.77177,-20.07412c-56.27857,-20.07412 -181.41564,-69.31844 -225.11429,-107.58473c-43.36761,-38.26629 -115.86765,-115.73984 -143.34484,-174.08025c-27.47719,-58.65407 -45.68496,-200.42753 -45.68496,-200.42753zm-161.55261,282.91961c0,0 118.185,55.20383 147.64849,70.25941c29.79454,15.05559 87.06626,51.43993 142.35168,64.61357c55.28542,12.85998 159.56631,35.12971 159.56631,35.12971c0,0 36.0845,29.1702 77.4658,39.20726c41.3813,10.03706 101.96353,23.2107 101.96353,23.2107c0,0 -79.78315,11.91901 -95.67357,15.99656c-15.89042,4.07756 -54.29227,7.21414 -64.88588,15.05559c-10.59361,8.15511 -15.89042,17.2512 -15.89042,17.2512c0,0 -151.95215,-33.24776 -191.0161,-42.34384c-39.395,-9.09608 -165.85627,-71.51405 -196.64396,-108.5257c-30.78769,-37.32531 -64.88588,-129.85445 -64.88588,-129.85445zm-58.26488,293.58398c0,0 160.22841,25.40631 270.79925,29.48386c110.57084,3.7639 255.90198,-21.32875 255.90198,-21.32875c0,0 20.19408,39.20726 37.4087,54.26285c16.88357,15.05559 87.06626,81.55111 101.96353,87.51061c14.56622,6.27316 44.36076,23.2107 44.36076,23.2107c0,0 -61.57538,37.32531 -100.63933,46.4214c-39.395,9.09608 -93.68727,23.2107 -93.68727,23.2107c0,0 -9.60046,29.1702 -36.0845,26.03362c-26.48403,-3.13658 -235.70791,-13.17364 -305.8906,-53.32188c-70.18269,-40.14824 -153.93845,-115.73984 -168.83572,-161.84758c-14.89727,-46.4214 -5.29681,-53.63554 -5.29681,-53.63554zm75.4795,366.35266c0,0 47.67126,-0.94097 128.44757,-7.84145c80.7763,-7.21414 319.79472,-57.39943 319.79472,-57.39943c0,0 29.46349,26.9746 50.98177,41.08921c21.18723,14.11461 46.67811,31.36581 46.67811,31.36581c0,0 -70.18269,42.03019 -192.3403,55.20383c-122.15761,13.17364 -232.3974,-5.9595 -264.50929,-16.93754c-31.78084,-11.29169 -89.05257,-45.48042 -89.05257,-45.48042zm569.07569,15.05559l130.76492,36.38434c0,0 -65.87904,46.10774 -71.17584,56.45846c-5.29681,10.03706 -57.27172,56.1448 -80.7763,71.20039c-23.17353,15.05559 -39.06395,38.26629 -39.06395,38.26629c0,0 69.85164,47.36237 99.64618,55.51748c29.79454,7.84145 58.59593,11.91901 58.59593,11.91901c0,0 -106.26719,78.41453 -246.63257,83.43306c-140.03433,5.33219 -269.8061,-1.88195 -328.07098,-30.11118c-58.59593,-28.22923 -151.95215,-105.70278 -151.95215,-105.70278c0,0 42.37446,-1.88195 139.04118,-25.09265c96.66673,-23.2107 173.13937,-42.34384 246.63257,-70.25941c73.16215,-28.22923 242.99102,-122.013 242.99102,-122.013zm24.49773,338.12343c-39.395,20.38778 -76.47265,29.1702 -114.54345,38.26629c-38.40185,9.09608 -80.7763,25.09265 -117.85395,42.34384c-37.4087,17.2512 -81.76946,31.05215 -163.86996,44.22579c-81.76946,13.17364 -240.01156,23.2107 -240.01156,23.2107c0,0 73.4932,58.34041 125.46811,66.49552c51.97492,7.84145 216.50698,-16.31022 286.68967,-38.26629c70.18269,-22.26973 234.71476,-106.64375 265.50245,-134.87298c142.68274,-130.48177 79.12105,-102.87986 -41.3813,-41.40287zm160.55946,-67.43649l77.4658,-1.88195c0,0 -43.69866,76.53258 -59.58908,90.64719c-15.89042,14.11461 -53.96122,67.43649 -53.96122,67.43649c0,0 28.47034,36.07068 81.76946,31.99313c52.96807,-3.7639 124.14391,-7.84145 163.53891,-21.01509c39.06395,-13.17364 69.85164,-22.26973 69.85164,-22.26973l-15.89042,58.34041c0,0 -124.14391,100.68425 -165.52522,132.05006c-41.3813,31.05215 -177.44303,134.87298 -356.87236,170.94367c-179.42933,36.38434 -269.8061,5.9595 -318.80156,-2.82292c-48.66441,-9.09608 -116.8608,-57.39943 -116.8608,-57.39943c0,0 312.51161,-119.8174 405.86783,-178.1578c93.35622,-58.34041 154.9316,-100.68425 205.91337,-152.12418c50.98177,-51.12627 83.09366,-115.73984 83.09366,-115.73984zm241.00471,250.61282c0,0 -88.05941,74.65063 -115.86765,100.68425c-27.47719,26.34728 -126.46126,131.7364 -165.52522,175.02122c-39.395,43.28482 -152.9453,133.93201 -195.6508,159.96563c-42.37446,26.34728 -167.84257,68.69112 -167.84257,68.69112c0,0 172.14622,15.99656 257.22618,-20.38778c85.07996,-36.07068 172.14622,-97.54767 230.4111,-140.83249c58.59593,-43.28482 105.27404,-110.72131 129.44072,-149.92857c24.49773,-39.20726 55.28542,-95.66572 55.28542,-95.66572c0,0 -21.18723,2.19561 -33.76714,1.25463c-12.91097,-1.25463 -26.81508,-18.19217 -26.81508,-18.19217l33.10504,-80.61013zm575.36565,-111.03497c0,0 -25.15983,37.32531 -38.40185,57.08577c-12.91097,20.07412 -46.01601,62.1043 -46.01601,62.1043c0,0 1.9863,75.27794 -5.29681,129.5408c-6.95206,54.26285 -55.28542,171.57098 -55.28542,171.57098c0,0 85.74206,-33.24776 119.84026,-86.56964c34.09819,-53.63554 49.32651,-109.78034 53.29912,-133.61835c3.97261,-23.83802 4.96576,-64.61357 4.96576,-64.61357c0,0 -11.91782,-35.44337 -17.87672,-61.16333c-6.28996,-25.71996 -16.22147,-59.9087 -15.22832,-74.33697zm-113.5503,165.92514c0,0 -31.44979,25.71996 -64.55483,45.79408c-33.10504,20.07412 -68.52744,35.12971 -68.52744,35.12971c0,0 -35.09135,66.80918 -43.03656,98.17499c-8.27626,31.36581 -27.14614,108.83936 -45.35391,155.26076c-18.20777,46.73506 -43.36761,110.72131 -43.36761,110.72131c0,0 60.58223,-28.54289 100.63933,-75.27794c40.38815,-46.73506 74.48635,-116.36716 98.65303,-171.57098c24.16668,-55.20383 65.54799,-198.23192 65.54799,-198.23192zm-194.3266,-65.8682c0,0 -24.16668,21.95607 -52.30597,41.08921c-28.13929,19.13314 -89.38362,43.91213 -108.58454,49.55798c-19.20092,5.64585 -50.31967,15.99656 -50.31967,15.99656c0,0 -57.27172,131.7364 -113.88135,202.30948c-56.27857,70.57307 -131.75807,157.14271 -161.88366,188.50852c-30.12559,31.67947 -86.40416,73.396 -86.40416,73.396c0,0 88.39046,9.7234 157.91106,-5.64585c69.52059,-15.05559 125.79916,-25.71996 192.00925,-73.396c66.54114,-47.67603 155.92475,-153.37881 182.07774,-188.50852c26.15298,-35.44337 26.15298,-55.51748 38.40185,-79.3555c11.91782,-23.83802 42.37446,-65.55454 42.37446,-65.55454c0,0 -21.18723,5.64585 -43.36761,9.40974c-22.18038,3.7639 -27.14614,-2.82292 -27.14614,-2.82292c0,0 15.89042,-43.91213 18.20777,-67.75015c1.9863,-23.83802 12.91097,-97.23401 12.91097,-97.23401zm-698.51641,1195.03737l24.82878,-49.55798c0,0 -19.53198,-3.13658 -49.32651,0.94097c-29.46349,4.07756 -64.22378,36.698 -55.28542,33.87508c8.60731,-2.50926 33.43609,-0.31366 43.69866,2.19561c10.26256,2.50926 36.0845,12.54632 36.0845,12.54632zm-83.42471,201.99582l15.22832,49.55798c0,0 -25.82193,3.13658 -39.72605,9.7234c-13.57307,6.58682 -37.4087,22.26973 -37.4087,22.26973c0,0 2.6484,-24.46533 10.92466,-43.91213c8.60731,-19.76046 49.98861,-40.77555 50.98177,-37.63897zm210.21702,221.75628l38.7329,13.4873c0,0 -17.21462,27.60191 -22.18038,37.01166c-5.29681,9.7234 -5.62786,37.95263 -4.96576,39.83458c0,0 -26.81508,-26.34728 -25.15983,-49.87164c1.65525,-23.2107 13.57307,-40.4619 13.57307,-40.4619zm399.90892,-174.3939l22.84248,-50.81261c0,0 44.69181,24.77899 43.03656,52.06724c-1.3242,27.28825 -25.82193,53.94919 -25.82193,53.94919c0,0 -2.6484,-27.28825 -11.91782,-37.63897c-9.26941,-10.66438 -28.13929,-17.56485 -28.13929,-17.56485zm218.16223,-627.00255c0,0 39.06395,-15.99656 82.10051,-32.62044c42.70551,-16.31022 89.71467,-48.30335 89.71467,-48.30335c0,0 -27.47719,68.69112 -30.12559,92.8428c-2.6484,24.15167 -4.63471,75.90526 -4.63471,75.90526l-498.893,409.01017c0,0 18.20777,15.36925 32.77399,14.11461c14.56622,-1.56829 22.18038,-3.13658 38.7329,2.50926c16.88357,5.33219 20.52513,14.11461 36.7466,17.87851c16.22147,3.45024 48.66441,6.27316 45.68496,17.87851c-3.3105,11.29169 -26.15298,98.17499 -61.24433,90.64719c-35.09135,-7.21414 -25.15983,-30.73849 -39.06395,-35.75702c-13.57307,-4.70487 -20.19408,6.58682 -36.0845,-0.31366c-15.55937,-6.90048 -60.25118,-47.36237 -86.07311,-38.8936c-25.49088,8.46877 -56.94067,21.01509 -72.16899,74.65063c-15.22832,53.63554 -4.30366,61.47699 -6.95206,76.84624c-2.6484,15.36925 -18.20777,32.9341 -18.20777,32.9341c0,0 11.58677,35.75702 -0.99315,49.55798c-12.57992,14.11461 -45.02286,10.35072 -64.22378,2.19561c-18.86987,-8.46877 -48.66441,-34.81605 -42.70551,-49.87164c5.62786,-14.74193 27.80824,-19.4468 36.41555,-31.67947c8.93836,-12.54632 7.94521,-28.22923 25.82193,-47.67603c17.87672,-19.4468 31.11874,-41.40287 34.7603,-55.83114c3.64155,-14.42827 0,-39.20726 0,-39.20726c0,0 -35.09135,0 -65.54799,10.03706c-30.45664,10.03706 -41.05025,23.83802 -67.86534,32.62044c-26.48403,9.09608 -48.00231,1.56829 -48.00231,1.56829c0,0 -21.18723,32.30678 -36.41555,37.32531c-15.22832,5.01853 -39.06395,-17.2512 -47.67126,-49.24432c-8.27626,-31.67947 -15.22832,-58.96772 5.29681,-65.8682c20.52513,-7.21414 38.40185,3.45024 51.31282,1.88195c13.24202,-1.56829 100.30828,-5.33219 121.82656,-8.46877c21.51828,-3.13658 68.52744,-10.03706 72.83109,-29.1702c4.30366,-19.4468 -57.27172,-46.73506 -77.13475,-54.26285c-19.86303,-7.52779 -59.92013,-26.9746 -59.92013,-26.9746c0,0 -20.85618,0 -39.06395,-7.21414c-18.53882,-7.52779 -8.60731,-27.28825 -5.95891,-34.50239c2.6484,-6.90048 24.16668,-42.03019 29.46349,-48.93066c5.29681,-7.21414 17.21462,-16.93754 33.43609,-8.46877c16.22147,8.46877 34.09819,28.54289 43.69866,33.24776c9.26941,4.39121 24.49773,12.23267 38.0708,23.83802c13.90412,11.29169 25.15983,34.81605 40.38815,46.73506c15.22832,11.91901 51.97492,58.96772 136.39278,-7.52779c84.41786,-66.49552 237.69421,-222.06994 280.39971,-267.2367c43.03656,-45.16677 133.08227,-156.20173 133.08227,-156.20173zm739.23561,1092.47117c0,0 18.53882,232.107 24.49773,282.60595c5.62786,50.1853 -1.65525,149.30126 -1.65525,149.30126c0,0 -90.04572,-68.06381 -100.30828,-163.10221c-9.93151,-95.0384 -8.60731,-135.81396 2.97945,-158.711c11.58677,-23.2107 17.21462,-20.38778 40.0571,-54.26285c22.84248,-34.18873 34.42924,-55.83114 34.42924,-55.83114zm0,-115.42618c0,0 -41.3813,139.89151 -91.70097,184.74462c-50.31967,44.85311 -101.63248,99.11596 -193.6645,97.86133c-91.70097,-1.56829 -131.75807,-47.67603 -143.01379,-70.88673c-11.58677,-22.89704 -20.19408,-77.15989 -20.19408,-77.15989c0,0 78.79,20.38778 163.20786,5.33219c84.74891,-15.05559 146.32429,-75.90526 176.44988,-142.71444c30.12559,-66.49552 43.03656,-141.14615 47.34021,-169.68903c4.30366,-28.54289 0,-66.49552 0,-66.49552c0,0 -94.68042,53.00822 -137.71698,101.93888c-43.03656,48.93066 -49.98861,92.21548 -41.3813,119.50374c8.60731,26.9746 24.16668,57.08577 24.16668,57.08577c0,0 -49.98861,10.66438 -65.87904,-4.07756c-15.55937,-15.05559 -68.85849,-36.698 -61.57538,-115.42618c7.28311,-79.04184 28.80139,-92.52914 83.09366,-134.55933c54.62332,-42.03019 136.06173,-107.27107 136.06173,-107.27107c0,0 -174.79463,100.37059 -232.06635,103.19352c-57.27172,2.82292 -146.32429,-12.23267 -193.6645,-89.70622c-47.00916,-77.47355 -5.62786,-143.96907 15.89042,-179.09878c21.51828,-35.44337 47.34021,-54.57651 47.34021,-54.57651c0,0 7.28311,66.80918 43.03656,103.19352c35.75345,36.698 99.97723,72.14136 179.09828,53.00822c79.12105,-18.81949 139.04118,-63.67259 174.79463,-122.013c36.0845,-58.65407 67.53429,-240.88942 67.53429,-240.88942l22.84248,748.70189zm-302.24904,-211.71922c0,0 -106.26719,31.05215 -149.30374,50.1853c-43.03656,18.81949 -143.34484,26.9746 -219.15538,63.67259c-76.1416,36.698 -90.37677,119.50374 -91.70097,146.79199c-1.65525,26.9746 28.47034,93.78377 28.47034,93.78377c0,0 5.95891,-53.00822 55.94752,-68.06381c50.31967,-14.74193 84.74891,-21.64241 139.04118,-31.05215c54.62332,-9.7234 136.06173,-17.87851 160.55946,-77.47355c24.49773,-59.9087 9.93151,-59.9087 21.51828,-90.96085c11.58677,-31.36581 54.62332,-86.88329 54.62332,-86.88329zm163.20786,-779.12673c0,0 8.60731,26.34728 16.22147,49.87164c7.61416,23.52436 5.29681,83.74671 19.20092,83.74671c14.23517,0 96.00462,-67.43649 96.00462,-67.43649c0,0 -2.31735,102.87986 -6.62101,123.26763c-4.30366,20.38778 -30.12559,40.77555 -57.93383,65.24089c-28.13929,24.46533 -73.4932,74.02331 -113.88135,112.91692c-40.0571,39.20726 -51.97492,86.88329 -38.0708,108.5257c14.23517,21.32875 38.0708,51.43993 38.0708,51.43993c0,0 -137.05488,20.70143 -174.46358,-16.93754c-37.73975,-37.63897 -60.25118,-106.01644 -22.84248,-164.04319c37.73975,-58.02675 96.00462,-117.30813 130.43387,-153.06515c34.42924,-35.44337 63.23063,-59.9087 80.44525,-91.58817c17.21462,-31.67947 33.43609,-101.93888 33.43609,-101.93888zm74.1553,-350.66976c0,0 -8.60731,52.06724 -25.82193,100.99791c-17.21462,48.93066 -51.64387,97.86133 -56.94067,123.26763c-5.29681,25.40631 6.62101,75.27794 16.22147,99.74328c9.60046,24.46533 29.13244,47.98969 34.42924,73.396c5.29681,25.71996 3.3105,52.06724 3.3105,52.06724c0,0 31.11874,-12.23267 44.02971,-40.77555c12.91097,-28.54289 50.65072,-115.11252 53.63017,-137.69591c3.3105,-22.26973 -0.99315,-75.27794 -1.9863,-98.8023c-0.99315,-23.52436 -25.82193,-43.91213 -35.4224,-79.3555c-9.93151,-35.75702 -31.44979,-92.8428 -31.44979,-92.8428zm33.43609,-201.99582c0,0 -33.43609,68.37747 -26.81508,112.2896c6.28996,43.91213 8.60731,95.66572 22.51143,123.26763c13.90412,27.60191 16.22147,32.62044 23.83563,43.91213c7.28311,11.29169 14.89727,19.4468 14.89727,19.4468l9.60046,-175.33488l-44.02971,-123.58129zm32.44294,-357.57024c0,0 -5.62786,29.48386 -17.21462,57.08577c-11.91782,27.28825 -25.82193,57.08577 -32.44294,91.58817c-6.28996,34.81605 -11.91782,89.70622 6.62101,134.55933c18.20777,44.85311 55.94752,105.07546 58.92698,123.26763c3.3105,18.50583 29.13244,-323.06785 29.13244,-323.06785c0,0 -13.90412,-44.85311 -22.51143,-58.96772c-8.60731,-14.42827 -22.51143,-24.46533 -22.51143,-24.46533zm-43.03656,-192.89973c0,0 -34.42924,73.396 -57.27172,100.05693c-22.51143,26.34728 -86.73521,75.27794 -86.73521,75.27794c0,0 6.28996,103.19352 15.89042,136.75493c9.60046,33.56142 31.11874,100.99791 31.11874,100.99791c0,0 61.24433,-71.51405 73.16215,-105.07546c11.91782,-33.56142 55.94752,-119.19008 53.96122,-145.85102c-2.31735,-26.34728 -33.43609,-159.96563 -30.12559,-162.16124zm-191.6782,-47.98969c0,0 -41.71235,28.85655 -68.19639,51.43993c-26.48403,22.58338 -32.44294,30.73849 -61.24433,49.24432c-28.80139,18.50583 -74.8174,31.36581 -86.73521,63.04528c-11.91782,31.36581 -1.65525,88.45158 5.95891,132.99104c7.61416,44.22579 28.80139,137.06859 28.80139,137.06859c0,0 35.75345,-16.93754 56.27857,-69.31844c20.52513,-52.3809 23.83563,-79.04184 37.4087,-116.0535c13.57307,-37.32531 37.4087,-58.96772 46.67811,-88.13793c9.60046,-28.85655 3.64155,-37.63897 13.90412,-74.96429c9.93151,-37.01166 27.14614,-85.315 27.14614,-85.315zm-37.4087,199.80021c0,0 4.30366,37.32531 8.27626,52.3809c4.30366,15.36925 6.95206,37.95263 6.95206,37.95263c0,0 22.84248,-21.64241 34.7603,-32.30678c11.91782,-10.35072 18.86987,-17.56485 18.86987,-17.56485c0,0 7.61416,37.01166 -0.99315,77.47355c-8.27626,40.14824 -4.96576,30.42484 -8.27626,66.80918c-3.64155,36.38434 -11.91782,123.26763 -17.21462,154.9471c-4.96576,31.36581 -22.84248,84.37403 -29.79454,111.97594c-6.62101,27.28825 -28.80139,72.45502 -28.80139,72.45502c0,0 -19.53198,-18.50583 -33.10504,-57.08577c-13.90412,-38.8936 -30.78769,-74.33697 -38.40185,-97.54767c-7.61416,-23.52436 -22.18038,-61.47699 -27.14614,-86.25598c-5.29681,-25.09265 10.26256,-33.87508 28.80139,-71.20039c18.86987,-37.01166 33.10504,-72.45502 40.0571,-100.68425c6.62101,-28.22923 46.01601,-111.34863 46.01601,-111.34863zm85.07996,170.31635c0,0 10.26256,55.51748 14.23517,70.88673c4.30366,15.36925 20.52513,63.67259 20.52513,63.67259c0,0 34.09819,-29.79752 47.67126,-46.73506c13.57307,-16.93754 30.78769,-40.4619 30.78769,-40.4619c0,0 -5.95891,34.81605 -5.29681,51.75359c0.99315,16.93754 2.6484,33.87508 9.60046,52.3809c6.62101,18.50583 16.88357,20.07412 12.57992,50.81261c-4.30366,30.73849 -19.53198,71.82771 -30.45664,98.48864c-11.25571,26.34728 -54.62332,68.37747 -54.62332,68.37747c0,0 -19.86303,-68.06381 -32.44294,-92.8428c-12.57992,-24.46533 -39.06395,-86.88329 -37.4087,-119.19008c1.65525,-32.30678 13.57307,-63.04528 12.91097,-80.61013c-0.99315,-17.87851 11.91782,-76.53258 11.91782,-76.53258zm-34.09819,229.59773c0,0 -9.26941,28.22923 -16.88357,51.75359c-7.94521,23.2107 -23.83563,47.67603 -24.82878,76.53258c-0.99315,29.1702 13.57307,100.68425 32.44294,144.28273c18.53882,43.59848 53.63017,129.85445 53.63017,129.85445c0,0 46.67811,-51.43993 55.28542,-80.61013c8.27626,-29.1702 33.10504,-88.76524 36.41555,-119.19008c3.64155,-30.73849 7.61416,-94.41109 7.61416,-94.41109c0,0 -6.62101,10.35072 -23.83563,24.15167c-16.88357,13.80096 -48.33336,37.95263 -48.33336,37.95263c0,0 -15.55937,-26.66094 -26.48403,-50.1853c-10.92466,-23.2107 -9.26941,-38.57995 -16.22147,-56.45846c-6.62101,-17.56485 -28.80139,-63.67259 -28.80139,-63.67259zm-148.64164,5.9595c0,0 23.50458,44.53945 32.44294,73.396c8.93836,29.1702 21.51828,51.43993 29.46349,65.55454c7.94521,13.80096 15.89042,-9.40974 22.51143,2.82292c6.95206,11.91901 6.95206,51.12627 14.89727,77.15989c7.94521,26.34728 28.47034,49.55798 30.45664,70.88673c1.9863,21.64241 1.9863,47.67603 -20.52513,85.94232c-22.84248,38.26629 -73.82425,107.27107 -120.17131,142.71444c-46.34706,35.44337 -89.71467,53.94919 -124.14391,91.27451c-34.42924,37.32531 -56.94067,75.5916 -56.94067,75.5916c0,0 -13.90412,-49.24432 -11.91782,-88.45158c1.9863,-39.20726 26.48403,-116.68081 37.4087,-137.06859c10.92466,-20.70143 20.85618,-45.79408 20.85618,-45.79408c0,0 -26.81508,26.03362 -62.23748,43.91213c-35.4224,17.56485 -56.94067,28.85655 -100.30828,43.59848c-43.36761,15.05559 -99.31513,30.73849 -99.31513,30.73849c0,0 12.57992,-41.71653 34.42924,-65.24089c21.51828,-23.2107 44.36076,-63.35894 56.94067,-90.33353c12.91097,-26.9746 33.43609,-70.88673 76.8037,-127.03153c43.36761,-55.83114 102.29458,-130.48177 138.71013,-164.04319c36.41555,-33.56142 100.63933,-85.62866 100.63933,-85.62866z" class="fil6 str1"/>
    <path stroke="null" id="svg_56" d="m2616.55186,2514.28318c-0.6621,-2.19561 -1.3242,-4.39121 -1.9863,-6.58682c-9.60046,-28.85655 -21.84933,-58.96772 -28.13929,-88.76524c-1.9863,-10.35072 -1.65525,-19.13314 0.33105,-27.60191l-14.56622,7.21414c-9.93151,43.28482 -30.78769,90.64719 -53.96122,126.71787c-26.48403,41.71653 -85.07996,78.72818 -132.08912,96.92035l-57.27172,22.26973l22.51143,-54.57651c4.63471,-11.60535 9.60046,-23.52436 13.90412,-35.44337c-25.82193,58.96772 -59.25803,126.71787 -101.63248,175.9622c-27.14614,31.36581 -70.51374,63.35894 -109.24664,81.55111l-60.58223,29.1702l23.83563,-60.22236c14.56622,-36.698 29.13244,-73.70965 43.36761,-110.40765c6.95206,-18.19217 13.24202,-37.32531 18.86987,-56.77212c-8.93836,11.29169 -18.20777,22.26973 -27.14614,32.9341c-19.86303,23.2107 -40.38815,45.79408 -61.90643,67.75015c-25.82193,26.66094 -54.62332,54.26285 -85.07996,76.21892c-66.87219,47.67603 -123.48181,60.53601 -202.27181,77.78721c-11.58677,2.50926 -23.17353,4.39121 -34.7603,5.9595c-41.3813,4.70487 -90.70782,4.70487 -132.08912,0.31366l-63.89273,-6.90048l50.31967,-37.63897c27.80824,-21.01509 59.58908,-45.79408 83.42471,-70.57307c16.55252,-17.56485 32.77399,-35.75702 48.33336,-53.63554c13.24202,-15.05559 26.48403,-30.42484 39.395,-45.48042c-69.18954,50.81261 -145.99324,102.25254 -225.44534,136.12762c-69.52059,29.79752 -194.9887,29.48386 -270.4682,22.26973l-117.85395,-10.97803l111.56399,-37.63897c30.78769,-10.35072 62.23748,-21.95607 92.36307,-33.87508c22.18038,-8.78243 49.65756,-19.4468 69.85164,-31.99313c14.89727,-9.09608 29.46349,-20.07412 43.36761,-30.42484c19.86303,-14.74193 39.395,-30.11118 58.26488,-45.79408c17.54567,-14.11461 34.7603,-28.54289 51.31282,-43.59848c12.57992,-11.29169 25.49088,-22.89704 36.7466,-35.44337c25.49088,-27.91557 50.98177,-55.51748 76.8037,-82.80574c4.30366,-4.39121 8.27626,-8.78243 12.57992,-13.17364c-86.40416,54.26285 -179.42933,95.97938 -282.71707,116.68081c-70.51374,14.42827 -143.67589,21.95607 -215.84488,15.99656c-23.17353,-1.88195 -45.68496,-5.01853 -68.19639,-9.40974c-15.22832,-3.13658 -30.12559,-6.58682 -45.02286,-9.40974c-40.7192,-7.52779 -94.01832,-37.95263 -127.78547,-61.79065l-37.4087,-26.66094l43.36761,-16.62388c74.1553,-28.54289 147.97954,-58.34041 220.81064,-89.70622c35.09135,-14.74193 70.18269,-30.42484 104.61194,-46.73506c25.15983,-11.91901 52.30597,-24.77899 75.81055,-39.52092c16.88357,-10.66438 34.09819,-21.32875 50.98177,-32.30678c-20.85618,10.35072 -42.0434,20.07412 -63.56168,29.48386c-19.53198,8.46877 -39.72605,16.93754 -59.92013,23.52436c-64.22378,20.07412 -234.71476,49.24432 -299.60064,39.20726c-44.69181,-6.90048 -103.61878,-44.53945 -138.04803,-72.14136l-49.98861,-39.83458l65.21693,-4.39121c48.00231,-3.13658 96.00462,-6.90048 144.00694,-11.60535c31.11874,-2.82292 62.56853,-6.27316 93.35622,-11.29169c53.29912,-8.46877 107.59139,-19.4468 156.58685,-42.03019c12.57992,-5.64585 25.49088,-11.29169 38.7329,-16.62388c-93.68727,2.19561 -237.36316,0 -307.8769,-33.87508c-23.17353,-11.29169 -46.01601,-26.03362 -66.87219,-40.4619c-30.78769,-21.64241 -61.57538,-44.85311 -90.37677,-68.69112l-49.32651,-40.77555l65.21693,-3.45024c9.93151,-0.31366 20.85618,-1.88195 30.78769,-3.45024c34.42924,-5.33219 69.18954,-12.54632 103.28773,-20.70143c81.43841,-19.76046 164.86311,-39.52092 242.99102,-69.6321c21.84933,-8.46877 44.36076,-18.50583 66.21009,-29.48386c-8.60731,1.25463 -17.21462,2.50926 -25.82193,3.45024c-56.60962,5.9595 -114.8745,5.9595 -171.81517,0.31366c-31.78084,-2.82292 -74.48635,-8.46877 -104.61194,-18.81949c-30.12559,-10.66438 -66.87219,-31.36581 -94.34937,-47.67603l-75.4795,-44.85311l89.05257,-1.56829c41.71235,-0.62732 85.07996,-4.07756 126.79231,-7.84145c20.52513,-1.88195 41.71235,-5.01853 62.23748,-8.46877c27.80824,-4.39121 55.28542,-9.40974 82.76261,-14.42827c33.43609,-6.27316 66.87219,-12.85998 100.30828,-19.4468c-10.26256,-0.62732 -20.19408,-1.25463 -30.12559,-2.19561c-36.0845,-3.13658 -72.16899,-6.90048 -107.59139,-11.91901c-45.02286,-6.58682 -109.90874,-17.56485 -148.64164,-40.14824c-58.59593,-33.56142 -160.55946,-113.85789 -180.75353,-175.9622c-6.62101,-21.32875 -18.86987,-63.35894 3.97261,-80.61013l8.93836,-6.58682l11.58677,1.88195c60.58223,9.40974 122.48866,17.2512 183.73299,22.89704c27.80824,2.50926 55.94752,4.70487 83.75576,5.9595c21.84933,0.62732 43.69866,0.31366 65.54799,-0.62732c31.44979,-1.56829 63.89273,-4.07756 96.33568,-7.84145c-40.0571,-8.78243 -80.1142,-17.56485 -120.17131,-26.66094c-51.31282,-11.91901 -178.76723,-78.72818 -211.21017,-117.62179c-27.14614,-32.9341 -54.29227,-96.92035 -68.85849,-137.06859l-21.18723,-58.02675l57.93383,27.28825c49.32651,23.2107 99.97723,46.10774 148.31059,70.88673c44.36076,22.58338 86.73521,50.1853 136.39278,62.1043c17.21462,4.07756 34.7603,8.15511 51.97492,11.91901c-5.62786,-4.07756 -11.25571,-8.15511 -15.89042,-12.54632c-51.31282,-44.85311 -121.16446,-122.013 -149.63479,-182.23536c-12.91097,-26.9746 -20.85618,-60.53601 -27.47719,-89.70622c-8.27626,-38.57995 -15.55937,-78.72818 -20.19408,-117.62179l-7.28311,-55.83114l48.66441,32.30678c49.65756,32.9341 99.97723,66.80918 150.959,97.86133c22.84248,13.80096 47.00916,26.66094 70.84479,38.8936c20.19408,10.66438 40.7192,21.01509 60.91328,31.67947c2.97945,1.56829 6.28996,3.13658 9.60046,5.01853c-3.97261,-5.64585 -7.94521,-11.29169 -11.91782,-16.62388c-11.25571,-16.31022 -22.18038,-32.9341 -32.44294,-49.55798c-7.28311,-11.91901 -15.22832,-25.09265 -20.85618,-37.63897c-11.91782,-26.34728 -20.85618,-61.16333 -27.14614,-89.0789c-5.95891,-25.09265 -11.91782,-53.00822 -13.24202,-78.72818c-1.3242,-28.85655 0.6621,-62.1043 5.62786,-90.64719l15.55937,-89.39256l35.09135,84.06037c11.25571,26.9746 23.17353,53.94919 35.4224,80.29647c9.60046,20.70143 20.85618,46.73506 33.43609,65.55454c10.92466,15.99656 29.13244,34.18873 43.03656,48.30335c13.24202,13.17364 26.81508,26.34728 40.38815,39.20726c-2.31735,-27.91557 -1.65525,-55.83114 -0.6621,-83.74671c3.97261,-95.0384 60.25118,-198.85924 125.13706,-270.37328c28.13929,-31.36581 62.23748,-58.65407 100.30828,-78.41453c14.56622,-7.52779 33.76714,-15.68291 49.65756,-19.4468l41.05025,-8.78243l-8.93836,38.8936c-8.93836,37.32531 -20.19408,98.48864 -15.89042,136.44127c4.63471,43.28482 9.26941,74.02331 32.44294,112.2896c16.22147,26.66094 29.79454,59.9087 41.3813,88.76524c7.61416,19.13314 15.22832,38.8936 21.84933,58.34041c4.96576,14.11461 9.93151,28.85655 13.24202,43.28482c8.60731,38.57995 -14.56622,96.92035 -26.48403,134.24567c-1.9863,5.01853 -3.97261,11.60535 -5.62786,18.19217l4.63471,3.45024c13.57307,9.40974 27.14614,18.81949 40.7192,27.91557c11.25571,7.52779 23.17353,15.99656 34.7603,22.26973c12.57992,6.90048 26.81508,12.85998 40.0571,19.13314c20.85618,9.7234 41.71235,20.07412 61.90643,31.67947c8.27626,4.70487 16.22147,9.7234 24.16668,15.05559c67.20324,44.53945 127.45442,105.70278 132.42017,187.56755c2.6484,45.79408 -20.52513,82.80574 -58.92698,108.5257c-24.82878,16.93754 -49.98861,25.71996 -78.1279,35.12971c-20.85618,6.90048 -93.02517,20.38778 -109.24664,33.24776c2.31735,9.09608 16.88357,26.34728 21.84933,31.99313c11.25571,12.54632 24.49773,25.09265 37.73975,35.44337c32.44294,25.71996 67.53429,55.51748 74.8174,97.23401c0.99315,4.70487 0.99315,9.40974 0.6621,13.80096c-1.65525,26.03362 -20.85618,47.36237 -40.0571,64.61357c-12.91097,11.29169 -28.80139,21.95607 -40.38815,33.56142c-23.50458,22.89704 -38.40185,23.83802 -25.49088,59.28138c1.9863,5.01853 5.29681,13.80096 10.92466,16.31022c6.62101,2.50926 20.19408,1.56829 26.81508,1.25463c19.53198,-1.25463 38.0708,-2.82292 57.60277,-1.56829c48.00231,3.13658 107.26034,23.2107 148.31059,47.04872c9.93151,5.64585 22.18038,17.2512 31.11874,24.77899c14.23517,11.60535 29.13244,23.2107 44.69181,33.24776c14.56622,9.40974 36.7466,21.32875 54.62332,21.64241c19.20092,0.62732 37.07765,-2.19561 54.29227,-9.7234c12.91097,-5.33219 23.17353,-13.17364 35.4224,-19.13314c15.55937,-7.84145 35.4224,-13.4873 52.63702,-16.93754l23.83563,-4.70487c17.87672,-27.28825 40.38815,-52.69456 63.89273,-73.70965c28.13929,-24.77899 60.58223,-47.67603 90.37677,-70.57307c24.82878,-19.13314 52.96807,-40.4619 74.1553,-63.04528c12.24887,-12.85998 23.50458,-26.66094 34.09819,-40.4619c12.57992,-16.93754 24.82878,-34.18873 35.75345,-52.06724c5.95891,-9.40974 14.56622,-22.89704 18.20777,-33.24776c1.3242,-3.7639 2.6484,-7.84145 3.97261,-11.60535l-38.7329,2.82292l14.23517,-36.698c7.94521,-20.38778 21.84933,-43.91213 35.4224,-60.53601c17.87672,-21.64241 32.11189,-74.33697 41.71235,-101.31157c10.26256,-28.85655 10.26256,-96.92035 9.26941,-128.28616l0,-1.25463l-5.29681,-11.29169c-31.11874,-10.03706 -74.48635,-25.40631 -102.95668,-23.83802c-26.81508,1.88195 -85.74206,11.60535 -108.58454,23.83802c-15.89042,8.46877 -38.7329,15.36925 -56.94067,12.23267l-16.55252,-2.82292l-4.30366,-15.68291c-5.62786,-20.07412 -0.99315,-44.22579 14.89727,-59.28138c13.90412,-12.85998 23.17353,-22.58338 40.0571,-32.30678c28.80139,-16.93754 62.23748,-23.83802 95.67357,-25.40631c26.15298,-1.25463 52.30597,-0.62732 78.45895,3.45024c1.65525,0.31366 2.97945,0.31366 4.63471,0.62732c-34.09819,-26.03362 -71.50689,-51.75359 -114.8745,-58.65407c-39.395,-6.27316 -81.10736,-9.09608 -120.83341,-13.17364c-27.14614,-2.82292 -54.62332,-5.64585 -81.76946,-9.40974c-19.53198,-2.82292 -43.36761,-6.27316 -61.90643,-13.17364c-48.33336,-18.19217 -98.32198,-65.8682 -119.84026,-110.40765c-13.24202,-26.9746 -19.20092,-64.61357 -17.87672,-94.72475l3.64155,-73.70965l44.69181,60.53601c18.20777,25.09265 71.83794,89.39256 102.29458,98.48864c14.89727,4.70487 36.0845,2.82292 51.31282,0.94097c16.88357,-2.19561 33.10504,-5.64585 49.65756,-8.78243c12.91097,-2.50926 30.45664,-6.27316 43.36761,-4.07756c7.28311,1.25463 13.90412,2.19561 20.85618,3.45024l61.24433,9.09608l-49.32651,35.75702c-5.62786,3.7639 -11.91782,9.40974 -16.88357,14.74193c17.54567,0.94097 35.4224,0.94097 50.98177,-0.94097c51.97492,-6.90048 100.63933,15.68291 145.00009,38.8936c18.53882,9.7234 37.73975,22.89704 54.95437,37.32531c-2.6484,-3.45024 -4.96576,-7.21414 -7.94521,-10.66438c-15.55937,-19.4468 -35.4224,-33.56142 -57.93383,-45.48042c-18.20777,-9.7234 -38.40185,-16.93754 -56.27857,-26.9746c-39.06395,-21.95607 -80.7763,-64.92723 -99.97723,-104.44815c-14.89727,-31.05215 -26.15298,-64.92723 -58.26488,-84.37403c-27.80824,-16.93754 -52.30597,-5.33219 -82.43156,-6.27316c-15.22832,-0.31366 -32.77399,-1.56829 -48.00231,-4.70487l-45.02286,-9.09608l30.78769,-32.30678c28.80139,-29.79752 75.4795,-57.08577 118.51605,-60.53601c42.0434,-3.45024 99.64618,-5.01853 136.72383,16.62388c17.21462,9.7234 28.47034,18.81949 35.09135,29.79752c0,-0.31366 0.33105,-0.31366 0.33105,-0.31366c17.54567,-17.56485 39.72605,-27.91557 63.89273,-31.99313l1.3242,-11.29169c3.64155,-31.99313 5.62786,-65.8682 5.29681,-97.86133c-0.33105,-17.87851 -1.3242,-37.01166 -4.63471,-54.89017c-5.29681,-26.66094 -8.93836,-54.57651 -12.24887,-81.55111c-4.30366,-36.698 -8.27626,-73.396 -11.58677,-110.09399l-1.9863,-22.26973l22.84248,-4.39121c30.45664,-5.9595 62.23748,8.78243 80.1142,31.67947c9.60046,12.54632 18.53882,29.79752 21.18723,46.73506c24.49773,9.09608 51.97492,22.89704 66.87219,39.83458c0.33105,0.31366 0.6621,0.62732 0.99315,0.94097c32.44294,-11.60535 78.45895,-22.26973 108.25349,-13.4873c2.97945,0.94097 5.62786,1.88195 8.60731,2.82292c1.3242,-2.50926 2.6484,-5.33219 4.30366,-7.84145c17.54567,-29.1702 68.52744,-53.63554 101.30143,-65.55454l23.50458,-8.15511l9.93151,21.95607c13.57307,30.42484 29.79454,82.80574 19.53198,114.79887c-0.99315,2.82292 -1.9863,5.64585 -3.3105,8.46877c1.65525,0.62732 2.97945,1.56829 4.63471,2.19561c27.14614,14.74193 50.31967,53.63554 63.89273,84.06037c0.6621,-0.31366 0.99315,-0.31366 1.65525,-0.31366c23.17353,-1.25463 52.30597,8.15511 76.47265,18.81949c14.56622,-9.7234 33.76714,-15.68291 50.31967,-17.56485c29.79454,-3.45024 62.89958,8.46877 79.12105,33.24776l12.57992,18.81949l-18.53882,14.11461c-30.45664,22.89704 -61.24433,45.48042 -92.36307,67.43649c-23.17353,16.31022 -46.67811,32.9341 -70.84479,47.67603c-16.22147,10.03706 -31.44979,22.58338 -45.35391,34.81605c-24.82878,21.64241 -49.65756,46.10774 -71.50689,70.57307l0,0.31366l-7.94521,19.4468l11.25571,4.39121c28.80139,10.97803 57.93383,23.52436 85.74206,36.07068c59.92013,27.28825 119.50921,57.39943 175.12568,91.90182c36.0845,22.26973 71.83794,47.04872 103.61878,74.96429c118.185,104.13449 242.32891,213.28751 315.16001,352.55171c30.12559,57.71309 54.95437,118.56276 74.8174,180.35341c8.60731,26.34728 16.88357,54.26285 22.84248,81.23745l0.6621,3.45024l37.07765,13.17364c0,0 -10.59361,212.03288 -6.95206,218.6197c3.3105,6.90048 39.06395,20.38778 34.09819,59.59504c-4.63471,38.26629 -7.94521,52.06724 -17.87672,73.396l1.3242,0l-0.99315,30.11118c-0.6621,34.81605 -1.3242,69.94576 -3.64155,104.44815c-1.65525,21.32875 -4.63471,41.08921 14.23517,55.51748c14.89727,11.60535 28.47034,24.15167 42.0434,36.698c10.26256,9.09608 21.18723,19.4468 32.44294,26.9746c30.45664,19.13314 71.17584,43.28482 79.78315,79.04184c7.28311,30.11118 9.93151,92.21548 -5.62786,119.19008c-6.28996,10.97803 -18.53882,24.15167 -27.14614,33.87508c-13.90412,15.36925 -28.13929,30.73849 -42.70551,45.79408c-21.84933,22.58338 -45.02286,47.36237 -68.52744,68.06381c-1.9863,1.88195 -6.28996,5.9595 -8.93836,9.09608c2.31735,2.19561 5.29681,4.70487 6.95206,5.9595c13.24202,9.7234 28.47034,19.13314 42.37446,28.22923c23.83563,15.05559 47.34021,30.11118 71.17584,44.85311c38.7329,24.46533 78.1279,48.30335 116.52975,73.08234c52.63702,34.18873 52.30597,89.0789 44.36076,143.02809c-3.64155,25.71996 -13.24202,54.89017 -21.51828,79.66916c-11.58677,36.07068 -24.82878,72.14136 -38.0708,107.89839c-20.85618,54.89017 -42.70551,112.2896 -67.53429,165.61148c-34.42924,73.396 -64.88588,148.36028 -99.64618,221.44262c-6.28996,14.11461 -15.22832,28.22923 -23.17353,41.40287c-12.91097,21.95607 -26.48403,43.91213 -40.0571,65.55454c-36.41555,58.02675 -73.82425,115.73984 -111.56399,172.82561c-35.75345,54.26285 -71.50689,108.21205 -108.25349,161.53392c-14.56622,20.70143 -29.13244,41.40287 -43.69866,62.1043c-10.26256,13.80096 -20.52513,27.91557 -31.44979,41.08921c-50.65072,60.53601 -99.64618,122.95398 -147.64849,185.05828l-13.57307,17.2512l-21.84933,-5.64585c-54.62332,-13.80096 -109.24664,-27.60191 -163.86996,-42.03019c-46.01601,-11.91901 -92.69412,-23.83802 -138.37908,-37.01166c-30.12559,-8.46877 -62.23748,-11.29169 -93.68727,-8.15511c-18.53882,1.88195 -43.36761,6.58682 -60.25118,15.05559c-13.90412,7.52779 -28.80139,18.50583 -41.71235,27.60191c-17.87672,12.85998 -35.75345,26.34728 -52.96807,40.14824l-31.44979,24.77899c1.9863,22.58338 3.64155,44.85311 5.62786,67.12283c3.97261,45.16677 7.28311,90.96085 12.24887,135.81396c2.31735,20.70143 2.6484,42.34384 2.31735,63.35894c0,30.11118 -1.3242,60.53601 -3.64155,90.33353l-3.3105,47.67603l-39.395,-29.48386c-18.20777,-13.80096 -37.07765,-33.24776 -51.31282,-50.49895c-30.78769,-37.32531 -53.96122,-81.86476 -58.92698,-129.85445c-4.30366,-39.20726 -13.24202,-111.34863 -0.6621,-156.20173c-16.88357,15.05559 -34.42924,29.1702 -53.96122,41.40287c-39.06395,24.15167 -80.44525,36.38434 -127.45442,35.75702c-40.7192,-0.62732 -81.76946,-9.7234 -116.1987,-31.67947c-20.52513,-13.17364 -40.0571,-31.99313 -50.65072,-53.32188c-10.92466,-22.26973 -18.53882,-59.9087 -22.18038,-84.68769l-5.95891,-37.95263l39.06395,10.03706c44.69181,11.60535 106.59824,13.17364 151.6211,5.01853c42.37446,-7.52779 79.12105,-28.54289 108.25349,-57.39943l-28.80139,6.27316c-27.14614,5.64585 -69.18954,9.09608 -90.37677,-10.97803c-4.30366,-3.7639 -10.59361,-7.84145 -15.22832,-11.29169c-9.60046,-7.52779 -18.53882,-15.36925 -26.48403,-24.46533c-7.28311,-9.09608 -13.24202,-18.50583 -17.54567,-28.54289c-33.43609,58.65407 -110.23979,68.37747 -173.80148,79.3555c-47.34021,8.15511 -90.37677,16.93754 -136.06173,30.42484c-20.52513,6.27316 -35.4224,26.66094 -37.4087,46.73506l-10.59361,96.29304l-40.0571,-89.0789c-11.91782,-26.34728 -32.44294,-76.84624 -30.78769,-104.76181c1.3242,-26.03362 8.93836,-54.89017 19.86303,-78.72818c17.87672,-38.26629 46.34706,-69.94576 86.07311,-89.0789c17.54567,-8.46877 35.75345,-15.36925 53.96122,-21.01509c32.44294,-10.35072 65.54799,-17.87851 98.65303,-25.09265c20.52513,-4.39121 48.66441,-9.7234 67.53429,-18.19217c11.91782,-5.01853 24.16668,-9.7234 36.41555,-14.11461c-60.25118,-11.91901 -114.2124,-43.59848 -146.98639,-97.23401c-23.50458,-38.26629 -30.78769,-79.98282 -20.85618,-123.26763c6.95206,-30.11118 20.52513,-54.89017 36.7466,-80.92379c12.57992,-21.01509 33.43609,-46.73506 53.96122,-61.79065l37.73975,-27.60191l4.96576,44.85311c2.97945,27.60191 15.55937,68.06381 36.0845,88.76524c39.395,40.4619 95.67357,59.59504 152.9453,45.79408c24.16668,-5.9595 47.00916,-14.42827 67.86534,-25.71996c-56.27857,6.27316 -141.35853,7.52779 -176.11883,-27.28825c-51.64387,-51.75359 -65.87904,-132.36372 -25.82193,-194.46802c36.7466,-56.77212 86.07311,-107.58473 133.41332,-156.82905c24.49773,-25.40631 59.92013,-55.83114 76.47265,-86.25598c13.57307,-24.46533 24.82878,-68.06381 31.11874,-95.66572l4.96576,-21.95607c-7.94521,-23.83802 -15.55937,-57.08577 -15.55937,-83.74671l-9.26941,10.35072l-15.89042,-39.20726c-6.62101,-16.62388 -13.57307,-33.24776 -20.19408,-49.87164c-3.97261,10.66438 -9.26941,21.32875 -15.55937,32.30678c-29.13244,48.93066 -80.7763,114.79887 -126.79231,149.92857c-29.79454,22.89704 -62.89958,40.77555 -92.36307,63.35894c-10.26256,7.52779 -19.86303,15.68291 -28.13929,25.09265c-19.53198,21.01509 -39.72605,47.04872 -53.96122,71.20039l-32.11189,53.94919l-16.88357,-59.59504c-1.65525,-6.58682 -3.3105,-13.4873 -4.96576,-20.70143l-453.87014,372.62583c7.28311,0.31366 14.89727,1.88195 24.49773,5.01853c10.92466,3.45024 17.54567,7.84145 26.48403,13.80096c2.6484,1.56829 4.63471,2.50926 7.61416,3.45024c5.95891,1.25463 12.24887,2.19561 18.53882,3.13658c18.86987,3.7639 41.3813,9.7234 47.00916,29.79752c0.99315,4.70487 1.3242,9.7234 0,14.42827l0,0c27.14614,14.74193 58.26488,43.59848 56.27857,75.27794c-1.3242,23.83802 -15.89042,51.12627 -32.11189,69.00478l-40.38815,44.53945l-5.95891,-58.34041c-0.6621,-5.64585 -2.97945,-19.76046 -5.95891,-23.83802c-3.3105,-4.07756 -12.57992,-8.78243 -17.87672,-10.66438l-0.33105,-0.31366c-12.24887,11.60535 -27.80824,18.50583 -46.67811,14.42827c-16.22147,-3.13658 -30.45664,-10.35072 -40.0571,-23.52436c-3.3105,-4.07756 -4.63471,-7.52779 -6.28996,-11.29169c-11.91782,2.50926 -20.85618,2.82292 -34.09819,-3.13658c-13.57307,-5.9595 -53.29912,-37.63897 -66.54114,-37.32531c-32.44294,10.66438 -45.68496,24.15167 -54.95437,57.08577c-3.64155,12.85998 -7.28311,27.91557 -7.28311,41.71653c0,7.52779 1.65525,14.42827 1.9863,21.95607c0,3.7639 -0.33105,7.21414 -0.99315,10.66438c-1.9863,11.29169 -8.27626,23.83802 -15.55937,34.50239c4.30366,20.38778 4.30366,44.85311 -9.93151,60.22236c-12.24887,13.80096 -31.78084,18.81949 -51.31282,18.19217c-6.28996,9.7234 -12.57992,19.76046 -17.54567,29.1702c-1.65525,4.39121 -2.6484,17.2512 -2.6484,23.83802l43.69866,110.09399l-88.72152,-87.51061c-17.54567,-16.93754 -34.42924,-43.91213 -32.77399,-68.69112c0.99315,-14.74193 5.95891,-32.30678 13.90412,-46.10774c-14.23517,-15.36925 -23.17353,-34.18873 -16.22147,-51.43993c1.3242,-3.7639 2.97945,-7.21414 5.29681,-10.35072c6.62101,-8.78243 14.89727,-14.42827 24.16668,-20.07412c2.31735,-1.56829 8.60731,-5.01853 9.93151,-6.90048c0.33105,-0.31366 0.6621,-0.94097 0.99315,-1.25463c2.6484,-5.01853 4.63471,-12.23267 6.95206,-17.56485c4.63471,-11.60535 10.92466,-21.64241 19.86303,-31.36581c9.93151,-10.66438 25.15983,-30.73849 28.80139,-44.85311c0.33105,-1.88195 0.6621,-4.07756 0.6621,-6.58682c-11.25571,1.25463 -22.51143,3.7639 -31.78084,6.90048c-24.49773,7.84145 -42.0434,24.15167 -67.53429,32.62044c-13.24202,4.39121 -29.46349,6.58682 -44.69181,5.64585c-10.92466,13.80096 -25.49088,28.54289 -40.0571,33.24776c-20.19408,6.58682 -40.38815,-3.45024 -53.96122,-17.2512c-3.3105,-3.45024 -6.62101,-6.90048 -9.26941,-10.66438c-8.60731,0.94097 -22.51143,3.45024 -29.46349,6.90048c-11.58677,5.64585 -23.83563,13.4873 -34.42924,20.70143l-47.67126,31.67947l5.95891,-54.89017c1.9863,-16.62388 6.28996,-35.75702 12.91097,-51.12627c5.29681,-11.91901 15.89042,-22.26973 26.48403,-30.42484c7.61416,-5.9595 16.55252,-11.60535 25.49088,-15.99656c3.97261,-1.88195 7.61416,-3.7639 11.58677,-5.01853c0.99315,-0.31366 1.65525,-0.31366 2.31735,-0.62732c1.3242,-8.15511 4.30366,-15.99656 10.26256,-22.89704c5.29681,-5.9595 11.91782,-10.35072 19.86303,-13.17364c13.24202,-4.39121 26.48403,-4.70487 40.38815,-2.50926c4.30366,0.94097 13.24202,3.13658 16.88357,3.13658c20.52513,-2.19561 43.03656,-2.82292 63.89273,-3.7639c18.20777,-1.25463 38.7329,-1.88195 56.94067,-4.39121c7.94521,-1.25463 29.46349,-4.39121 43.03656,-8.78243c-15.22832,-10.35072 -43.03656,-22.89704 -52.96807,-26.66094c-19.20092,-6.90048 -38.40185,-16.31022 -56.94067,-25.09265c-14.56622,-0.94097 -30.45664,-4.39121 -43.03656,-9.40974c-12.57992,-5.01853 -21.84933,-14.74193 -25.49088,-27.28825c-1.65525,-6.58682 -1.65525,-12.23267 -0.99315,-18.19217c-7.28311,-2.50926 -14.89727,-5.33219 -21.84933,-7.21414c-5.95891,-1.56829 -23.50458,-3.13658 -28.47034,-2.19561c-10.92466,3.13658 -22.84248,0.31366 -30.12559,-8.15511c-9.93151,-11.60535 -6.62101,-25.40631 2.31735,-35.75702c2.97945,-3.13658 6.62101,-6.58682 10.26256,-9.40974c8.93836,-7.52779 19.53198,-14.42827 30.45664,-19.76046c9.60046,-4.70487 19.86303,-8.46877 30.45664,-9.7234c17.21462,-2.50926 40.38815,-3.7639 57.60277,-0.62732l7.28311,1.25463c14.56622,-7.84145 32.11189,-8.46877 48.99546,0c7.94521,4.39121 15.22832,9.7234 22.18038,15.36925c5.62786,5.01853 14.89727,14.42827 20.52513,17.56485c15.55937,7.52779 30.78769,16.62388 43.69866,27.60191c10.26256,8.46877 17.87672,19.13314 25.49088,29.48386c3.97261,5.33219 8.93836,12.54632 14.23517,16.62388c10.26256,8.15511 17.87672,17.56485 31.78084,20.70143c23.83563,5.64585 53.63017,-14.74193 70.84479,-28.22923c44.02971,-34.50239 86.40416,-74.96429 126.79231,-113.85789c51.31282,-48.93066 102.29458,-99.42962 150.959,-150.86955c19.86303,-20.70143 39.06395,-43.28482 57.60277,-65.24089c21.18723,-25.09265 42.37446,-50.49895 63.23063,-76.21892l-44.36076,12.54632l13.57307,-44.22579c7.28311,-24.46533 22.18038,-55.51748 40.0571,-74.96429c20.19408,-21.64241 40.0571,-57.39943 52.63702,-84.06037c22.51143,-47.67603 46.67811,-88.76524 79.78315,-131.42274c15.89042,-20.70143 32.11189,-41.71653 48.66441,-62.1043c16.22147,-20.07412 32.44294,-39.52092 48.99546,-58.96772c13.90412,-15.68291 28.47034,-31.99313 44.02971,-46.10774c32.44294,-30.11118 67.20324,-58.96772 101.30143,-86.88329l4.30366,-3.45024zm375.74224,592.1865c-1.65525,4.07756 -3.3105,7.84145 -4.96576,11.60535l4.63471,-3.7639l0.33105,-7.84145zm19.53198,528.82756l1.9863,68.06381c7.61416,209.20995 27.80824,513.45831 27.80824,513.45831c0,0 68.85849,-55.20383 99.97723,-71.20039c31.11874,-16.31022 103.28773,-31.36581 179.42933,-9.7234c76.1416,21.95607 301.25589,79.04184 301.25589,79.04184c0,0 88.39046,-114.17155 148.31059,-185.99925c60.25118,-71.82771 326.41572,-479.26958 354.22396,-537.92365c27.80824,-58.65407 65.21693,-148.04662 99.31513,-221.12896c34.09819,-73.08234 115.86765,-285.42887 124.80601,-344.71025c8.60731,-59.59504 2.31735,-91.90182 -30.12559,-112.91692c-32.77399,-21.01509 -202.60286,-125.7769 -232.06635,-147.73297c-29.46349,-21.64241 -25.49088,-39.83458 0,-62.41796c14.89727,-13.17364 54.95437,-53.63554 87.06626,-87.82427c2.31735,-8.46877 2.31735,-31.36581 -12.57992,-30.11118c-15.55937,1.25463 -9.60046,1.88195 -10.59361,1.25463l-249.94307,13.80096c-19.86303,1.25463 -37.4087,-13.4873 -38.40185,-32.30678l-3.97261,-63.67259c-0.99315,-19.13314 14.23517,-35.44337 34.42924,-36.38434l268.81295,-15.05559c19.86303,-0.94097 37.4087,13.80096 38.40185,32.62044l2.6484,44.22579l0.33105,5.64585c0.33105,13.17364 20.52513,11.29169 21.84933,1.56829c0,-0.62732 0,-0.94097 0.33105,-1.25463c1.9863,-23.52436 -0.33105,-53.94919 -3.97261,-69.6321c-5.62786,-23.2107 -41.3813,-44.22579 -66.21009,-60.22236c-24.49773,-15.68291 -48.33336,-42.97116 -76.8037,-64.92723c-28.47034,-21.64241 -28.80139,-46.4214 -26.48403,-81.86476c2.31735,-35.75702 3.64155,-103.19352 3.64155,-103.19352c0,0 -58.26488,-3.13658 -84.41786,-17.2512c-25.82193,-13.80096 -31.11874,-46.4214 -31.11874,-61.16333c0,-14.74193 5.62786,-44.53945 5.62786,-44.53945c0,0 0,-56.77212 1.65525,-101.62523c1.9863,-44.53945 3.64155,-101.62523 5.29681,-122.013c1.3242,-20.38778 2.6484,-30.42484 18.20777,-34.81605c15.55937,-4.39121 38.0708,-9.7234 38.0708,-9.7234c0,0 -26.81508,-123.89495 -95.01147,-254.37672c-68.19639,-130.48177 -183.07089,-233.36163 -308.20795,-343.45562c-125.13706,-110.09399 -353.89291,-196.66363 -353.89291,-196.66363c1.3242,-4.39121 -16.55252,57.08577 -27.47719,130.48177c-11.25571,73.396 -47.00916,378.27167 -69.18954,531.65048c-22.18038,153.06515 -56.60962,522.5544 -78.79,730.82338c-11.25571,104.13449 -20.52513,252.18111 -28.80139,407.12822l238.68736,-345.33757l0.33105,0c3.3105,-5.01853 8.27626,-9.09608 14.56622,-11.60535l573.7104,-235.87089c16.55252,-6.58682 36.0845,0.62732 43.03656,16.31022c7.28311,15.99656 -0.33105,34.18873 -16.88357,41.08921l-564.77203,231.79334l-273.77871,396.46384c-4.96576,7.21414 -12.24887,11.60535 -20.52513,13.4873c-5.95891,120.44471 -11.58677,239.94845 -16.88357,342.82831c-12.57992,248.41722 -13.57307,279.46937 -13.57307,424.37941c11.91782,-16.31022 31.78084,-26.9746 54.29227,-26.9746c36.41555,0 65.87904,27.91557 65.87904,62.41796c0,34.50239 -29.46349,62.41796 -65.87904,62.41796c-22.51143,0 -42.0434,-10.35072 -53.96122,-26.66094c0,6.90048 0,14.11461 0.33105,21.32875zm53.63017,-88.76524c18.53882,0 33.43609,14.11461 33.43609,31.67947c0,17.56485 -14.89727,31.99313 -33.43609,31.99313c-18.53882,0 -33.43609,-14.42827 -33.43609,-31.99313c0,-17.56485 14.89727,-31.67947 33.43609,-31.67947zm828.28818,-1161.16229l269.144,-14.74193c8.93836,-0.31366 16.88357,6.27316 17.21462,14.74193l3.97261,63.67259c0.6621,8.78243 -6.28996,16.31022 -15.55937,16.62388l-268.81295,14.74193c-9.26941,0.62732 -17.21462,-5.9595 -17.54567,-14.74193l-3.97261,-63.67259c-0.6621,-8.46877 6.62101,-15.99656 15.55937,-16.62388zm77.4658,-674.67858l-0.6621,204.50508l76.1416,-9.40974l-25.82193,-201.05484c-3.3105,-32.30678 -49.65756,-20.70143 -49.65756,5.9595zm50.65072,221.75628c26.81508,0 48.66441,20.38778 48.66441,45.79408c0,25.40631 -21.84933,46.10774 -48.66441,46.10774c-26.81508,0 -48.66441,-20.70143 -48.66441,-46.10774c0,-25.40631 21.84933,-45.79408 48.66441,-45.79408zm-1180.19478,1672.425c16.88357,-15.05559 31.78084,-32.62044 43.69866,-52.3809c16.22147,-26.03362 28.13929,-71.51405 36.0845,-100.99791c7.94521,-31.05215 15.22832,-63.04528 21.51828,-94.72475c-26.81508,23.52436 -52.30597,51.43993 -77.4658,76.84624c-11.25571,11.60535 -22.51143,22.89704 -34.09819,33.87508c-14.23517,14.11461 -26.81508,31.67947 -32.77399,50.49895c-1.9863,5.9595 -5.29681,21.32875 -1.65525,27.28825c11.25571,16.93754 24.16668,33.56142 36.7466,49.55798l7.94521,10.03706zm-21.84933,522.86806c18.86987,-19.76046 34.42924,-42.6575 45.68496,-67.12283c22.84248,-50.49895 37.07765,-108.83936 45.35391,-163.41587c0.6621,-5.9595 1.3242,-12.23267 1.65525,-18.50583c-34.09819,21.64241 -70.84479,48.61701 -92.69412,73.396c-20.52513,23.2107 -46.67811,64.29991 -36.7466,96.29304c5.62786,17.56485 14.23517,36.38434 22.84248,53.00822l13.90412,26.34728zm-1417.22689,-2466.29366c0,0 -0.33105,-0.31366 -0.33105,-0.31366c0,0.31366 -0.33105,0.31366 -0.33105,0.62732l0.6621,-0.31366z" class="fil4"/>
    <path stroke="null" id="svg_57" d="m2365.94669,812.37432c0,0 69.18954,93.47011 116.1987,108.21205c47.00916,14.42827 127.12337,-14.74193 147.97954,-11.29169c21.18723,3.45024 21.18723,3.45024 21.18723,3.45024c0,0 -14.23517,10.03706 -27.14614,25.40631c-12.57992,15.36925 -20.52513,30.11118 -20.52513,30.11118c0,0 59.25803,8.46877 101.30143,3.13658c42.0434,-5.33219 83.09366,12.23267 128.44757,36.07068c45.35391,24.15167 84.08681,62.41796 89.71467,79.98282c5.62786,17.56485 9.93151,50.1853 -26.81508,21.64241c-36.41555,-28.54289 -87.39731,-71.82771 -149.96584,-81.86476c-62.56853,-10.03706 -215.51383,-17.87851 -259.21249,-34.50239c-44.02971,-16.31022 -87.72836,-60.53601 -105.60509,-97.23401c-17.87672,-36.698 -15.55937,-83.1194 -15.55937,-83.1194zm130.10282,-96.92035c0,0 46.01601,-48.30335 100.97038,-52.69456c54.95437,-4.07756 96.33568,-0.94097 120.83341,13.17364c24.49773,14.42827 32.77399,21.01509 30.78769,55.20383c-1.9863,34.18873 1.65525,59.59504 30.45664,82.49208c28.80139,22.89704 38.40185,54.26285 51.64387,67.43649c13.24202,13.4873 125.46811,80.61013 154.60055,95.97938c29.46349,15.36925 30.78769,44.22579 22.84248,62.1043c-8.27626,18.19217 -28.13929,46.10774 -20.52513,64.29991c7.61416,18.50583 46.67811,67.43649 38.40185,84.06037c-8.27626,16.62388 -22.84248,42.6575 -79.78315,26.34728c-56.94067,-16.31022 -99.97723,-35.12971 -138.37908,-32.62044c-38.40185,2.19561 -97.32883,14.42827 -120.17131,26.66094c-23.17353,12.23267 -39.06395,9.40974 -39.06395,9.40974c0,0 -6.28996,-21.95607 7.94521,-35.12971c14.23517,-13.4873 40.38815,-46.73506 118.185,-50.49895c77.79685,-3.7639 98.65303,11.91901 132.08912,13.4873c33.76714,1.56829 43.69866,8.46877 43.36761,-25.09265c-0.6621,-33.56142 3.64155,-74.33697 -35.75345,-122.95398c-39.395,-48.93066 -96.00462,-64.61357 -121.82656,-79.04184c-25.82193,-14.42827 -68.85849,-51.12627 -89.38362,-93.15646c-20.19408,-42.03019 -30.78769,-72.45502 -67.86534,-95.0384c-37.07765,-22.58338 -69.18954,-9.40974 -96.00462,-10.35072c-27.14614,-0.62732 -43.36761,-4.07756 -43.36761,-4.07756zm728.31095,110.40765c0,0 -57.93383,-52.69456 -155.5937,-91.58817c-97.99093,-38.8936 -146.98639,-58.02675 -211.54122,-58.96772c-64.22378,-1.25463 -94.34937,45.16677 -92.03202,75.90526c1.9863,30.42484 43.36761,42.97116 69.85164,44.22579c26.81508,0.94097 111.23294,-4.39121 142.35168,6.27316c31.11874,10.35072 53.29912,36.698 62.23748,53.63554c8.93836,16.93754 -22.18038,-10.66438 -41.05025,-16.93754c-18.86987,-6.27316 -28.80139,-9.7234 -28.80139,-9.7234c0,0 -1.9863,20.70143 -3.64155,26.34728c-1.65525,5.9595 -12.91097,29.1702 -41.3813,26.34728c-28.47034,-3.13658 -58.26488,-57.39943 -58.26488,-57.39943c0,0 -43.69866,-7.52779 -43.69866,8.46877c-0.33105,15.68291 47.34021,57.71309 63.89273,67.43649c16.22147,9.7234 53.96122,30.11118 88.05941,44.85311c34.09819,14.42827 50.98177,29.79752 56.60962,48.30335c5.29681,18.81949 -19.86303,63.98625 -25.15983,83.43306c-5.29681,19.4468 32.11189,45.16677 34.09819,77.47355c1.65525,32.30678 0.99315,69.6321 -29.79454,83.43306c-30.45664,13.4873 -37.73975,-2.50926 -46.67811,-0.94097c-8.93836,1.56829 -19.53198,5.01853 -19.53198,5.01853c0,0 2.6484,98.8023 -10.92466,137.06859c-13.57307,38.26629 -26.15298,85.00135 -45.68496,108.83936c-19.86303,23.83802 -31.44979,53.63554 -31.44979,53.63554l32.11189,-2.50926c0,0 -3.3105,25.40631 -11.58677,47.67603c-7.94521,21.95607 -52.96807,91.90182 -93.35622,134.55933c-40.38815,42.34384 -127.45442,100.99791 -166.18732,135.18664c-38.40185,33.87508 -69.85164,78.41453 -86.07311,118.2491c-16.22147,39.83458 -12.57992,37.32531 -15.22832,58.65407c-2.6484,21.32875 10.59361,44.22579 10.59361,44.22579c0,0 41.3813,-27.28825 61.90643,-41.71653c20.85618,-14.42827 62.23748,-35.12971 90.70782,-58.65407c28.80139,-23.52436 52.30597,-47.67603 72.83109,-61.16333c20.52513,-13.80096 53.96122,-48.61701 53.96122,-48.61701c0,0 -38.7329,102.87986 -43.03656,130.16811c-4.63471,27.28825 -16.22147,123.58129 -12.57992,144.59639c3.64155,21.32875 6.28996,40.14824 6.28996,40.14824c0,0 11.25571,-11.29169 34.09819,-37.63897c22.84248,-26.03362 59.25803,-48.30335 90.70782,-86.56964c31.44979,-38.26629 96.99778,-176.27585 96.99778,-176.27585c0,0 2.6484,74.02331 1.65525,104.76181c-0.99315,30.73849 28.80139,161.53392 45.68496,183.80365c17.21462,21.95607 16.22147,22.89704 16.22147,22.89704l12.91097,-97.54767c5.62786,-53.94919 10.92466,-108.21205 16.55252,-162.16124c7.61416,-76.53258 15.55937,-152.7515 24.16668,-229.28407c6.28996,-58.96772 12.91097,-117.93545 21.51828,-176.90317c10.92466,-75.90526 20.52513,-152.43784 30.12559,-228.65676c7.94521,-61.16333 15.22832,-122.013 23.17353,-182.86267c4.96576,-40.14824 9.93151,-80.29647 15.89042,-120.13105c6.62101,-45.16677 16.55252,-89.70622 28.13929,-133.93201l9.26941,-34.50239l0.33105,0c0.33105,-0.62732 0.33105,-0.94097 0.33105,-0.94097zm-11.58677,-363.52974c9.26941,-7.21414 25.82193,-3.7639 36.41555,-36.38434c10.26256,-32.30678 -18.53882,-97.54767 -18.53882,-97.54767c0,0 -69.85164,25.09265 -87.39731,54.57651c-17.54567,29.48386 -3.97261,38.57995 -4.63471,49.24432c-8.60731,-7.21414 -4.96576,-22.89704 -39.395,-32.9341c-34.09819,-9.7234 -102.95668,17.56485 -102.95668,17.56485c0,0 26.48403,66.18186 57.60277,82.80574c31.11874,16.62388 40.7192,3.7639 51.97492,4.39121c0,0 0.33105,11.60535 -23.17353,26.34728c-23.50458,15.05559 -43.69866,11.29169 -64.55483,-2.50926c-20.52513,-13.80096 -40.0571,-37.95263 -40.0571,-37.95263c0,0 -19.20092,8.78243 -45.35391,14.11461c-26.15298,5.01853 -31.11874,-27.60191 -33.10504,-38.26629c-1.9863,-10.35072 17.54567,-18.19217 36.7466,-17.87851c19.20092,0.31366 48.33336,14.74193 48.33336,14.74193c0,0 13.57307,-35.44337 -6.95206,-58.65407c-20.52513,-23.2107 -73.4932,-37.95263 -73.4932,-37.95263c0,0 6.28996,-21.64241 -15.55937,-49.87164c-22.18038,-28.22923 -53.29912,-21.95607 -53.29912,-21.95607c0,0 11.91782,130.48177 23.50458,189.13584c11.58677,58.65407 -0.33105,160.27929 -0.33105,160.27929c0,0 142.68274,38.8936 198.96131,63.04528c55.94752,23.83802 183.40194,92.8428 183.40194,92.8428c0,0 69.85164,-77.78721 122.81971,-110.09399c52.96807,-32.30678 161.22156,-113.85789 161.22156,-113.85789c0,0 -16.88357,-25.71996 -53.63017,-21.32875c-36.7466,4.07756 -48.99546,23.2107 -48.99546,23.2107c0,0 -47.34021,-26.34728 -79.4521,-24.46533c-32.11189,1.88195 -49.65756,35.44337 -49.65756,35.44337c0,0 31.11874,10.03706 44.36076,23.2107c13.24202,13.17364 20.85618,31.67947 11.25571,37.63897c-9.26941,5.9595 -37.73975,25.09265 -51.64387,3.45024c-14.23517,-21.64241 -20.52513,-41.08921 -20.52513,-41.08921c0,0 -31.78084,3.45024 -56.60962,-1.25463c-24.82878,-5.01853 -41.3813,-16.31022 -46.34706,-42.6575c-4.63471,-26.66094 4.30366,-34.18873 4.30366,-34.18873c8.27626,7.21414 4.96576,22.89704 39.06395,32.9341c34.09819,9.7234 102.95668,-17.56485 102.95668,-17.56485c0,0 -26.15298,-66.18186 -57.27172,-82.80574c-31.11874,-16.62388 -40.7192,-3.7639 -49.98861,-3.7639zm-1426.16525,-60.53601c0,0 -68.85849,15.36925 -136.06173,89.70622c-67.53429,74.33697 -115.5366,172.82561 -118.51605,255.00404c-3.3105,81.86476 1.3242,100.05693 14.23517,165.29782c12.91097,65.24089 72.16899,165.61148 72.16899,165.61148c0,0 116.8608,28.54289 153.6074,47.04872c37.07765,18.19217 88.05941,66.49552 88.05941,66.49552c0,0 -92.69412,-49.87164 -118.51605,-56.1448c-25.49088,-5.9595 -78.45895,-15.05559 -111.89505,-18.19217c-33.76714,-2.82292 -94.68042,-10.66438 -94.68042,-10.66438c0,0 4.96576,30.73849 28.47034,70.88673c23.17353,40.4619 80.7763,128.59982 108.91559,135.18664c28.13929,6.90048 51.31282,7.84145 64.22378,14.42827c12.91097,6.90048 24.82878,17.56485 24.82878,17.56485c0,0 -46.34706,-12.23267 -112.2261,-11.29169c-65.87904,0.62732 -113.88135,20.38778 -149.30374,28.85655c-35.09135,8.46877 -66.54114,18.19217 -66.54114,18.19217c0,0 22.51143,34.18873 41.71235,55.51748c19.20092,21.32875 93.02517,89.70622 124.47496,104.13449c31.11874,14.42827 43.36761,3.7639 76.1416,-1.56829c32.77399,-5.33219 59.92013,-5.33219 59.92013,-5.33219c0,0 -68.85849,23.52436 -100.97038,39.52092c-32.11189,15.99656 -105.60509,49.24432 -130.76492,59.28138c-24.82878,9.7234 -77.4658,17.2512 -77.4658,17.2512c0,0 19.86303,44.85311 63.89273,65.55454c44.36076,20.38778 115.5366,55.51748 154.9316,63.04528c39.06395,7.52779 52.96807,4.39121 76.1416,-5.33219c23.17353,-10.03706 33.76714,-15.36925 45.68496,-15.99656c11.91782,-0.62732 22.51143,3.13658 22.51143,3.13658c0,0 -28.80139,18.81949 -56.94067,30.42484c-28.13929,11.29169 -54.62332,18.81949 -84.41786,44.53945c-29.46349,26.03362 -34.42924,41.08921 -71.17584,70.88673c-37.07765,29.48386 -73.16215,60.84967 -73.16215,60.84967c0,0 43.36761,39.20726 134.73753,45.48042c91.70097,5.9595 165.19416,-5.33219 165.19416,-5.33219c0,0 16.22147,-49.55798 35.4224,-57.08577c19.20092,-7.52779 33.76714,-8.15511 33.76714,-8.15511c0,0 -8.27626,9.09608 -24.16668,27.28825c-15.89042,18.19217 -34.42924,63.67259 -49.65756,88.13793c-15.22832,24.15167 -22.51143,41.08921 -37.73975,65.24089c-15.22832,24.46533 -51.31282,65.24089 -51.31282,65.24089c0,0 36.0845,10.66438 97.65988,6.27316c61.90643,-4.70487 138.04803,-18.19217 154.2695,-25.09265c15.89042,-6.90048 23.83563,-18.19217 31.11874,-35.12971c7.28311,-16.62388 18.53882,-37.01166 34.42924,-55.20383c16.22147,-18.50583 37.73975,-31.99313 37.73975,-31.99313c0,0 -19.20092,37.32531 -33.76714,65.24089c-14.23517,28.22923 -14.23517,30.42484 -23.17353,63.98625c-8.93836,33.24776 -16.88357,64.29991 -27.14614,92.52914c-10.59361,28.22923 -36.0845,90.33353 -36.0845,90.33353c0,0 57.60277,2.50926 101.63248,-15.99656c44.36076,-18.19217 70.51374,-34.81605 101.96353,-49.24432c31.11874,-14.42827 60.25118,-35.75702 68.19639,-50.1853c7.94521,-14.42827 4.63471,-39.52092 11.91782,-53.94919c7.28311,-14.42827 22.51143,-49.24432 22.51143,-49.24432c0,0 -1.65525,51.43993 -4.96576,75.27794c-2.97945,23.52436 -12.57992,55.20383 -13.57307,72.76868c-0.6621,17.56485 -7.94521,72.14136 -12.91097,95.0384c-4.63471,22.89704 -12.57992,39.52092 -12.57992,39.52092c0,0 48.66441,-8.46877 77.79685,-26.66094c28.80139,-18.19217 80.7763,-42.6575 109.57769,-78.10087c29.13244,-35.75702 72.16899,-98.17499 89.05257,-127.03153c16.88357,-28.85655 26.48403,-41.71653 28.13929,-64.61357c1.65525,-22.58338 -17.54567,-43.91213 -13.57307,-78.10087c3.97261,-34.18873 6.28996,-52.3809 9.60046,-69.31844c3.3105,-16.62388 8.93836,-37.01166 8.93836,-37.01166c0,0 -27.47719,5.33219 -45.68496,14.42827c-18.53882,9.09608 -45.02286,33.24776 -102.62563,31.67947c-57.93383,-1.56829 -129.10967,-74.96429 -143.67589,-83.43306c-14.56622,-8.46877 -75.4795,-39.52092 -136.39278,-43.28482c-60.91328,-3.7639 -99.31513,19.76046 -118.51605,-32.62044c-19.20092,-52.3809 10.26256,-64.61357 31.11874,-85.315c20.85618,-20.38778 79.4521,-53.94919 73.16215,-90.33353c-6.62101,-36.38434 -45.68496,-66.18186 -65.87904,-81.86476c-20.19408,-15.99656 -75.4795,-66.18186 -68.85849,-93.47011c6.28996,-27.60191 99.31513,-41.08921 126.46126,-50.1853c27.47719,-9.09608 124.47496,-36.38434 119.50921,-118.56276c-4.63471,-82.17842 -75.14845,-138.32322 -120.83341,-168.74806c-45.68496,-30.42484 -105.27404,-53.94919 -124.47496,-64.61357c-19.20092,-10.66438 -77.79685,-51.43993 -77.79685,-51.43993c0,0 -3.97261,45.48042 7.94521,57.71309c12.24887,11.91901 42.70551,37.95263 42.70551,37.95263c0,0 -24.16668,5.9595 -36.0845,-3.13658c-12.24887,-9.09608 -23.17353,-26.66094 -33.10504,-53.94919c-9.60046,-27.28825 2.6484,-66.18186 9.93151,-88.13793c6.95206,-21.95607 33.10504,-89.0789 25.82193,-121.38569c-7.28311,-32.30678 -48.66441,-142.71444 -73.4932,-183.17633c-24.82878,-40.4619 -30.12559,-71.20039 -35.75345,-122.32666c-5.62786,-51.12627 16.22147,-144.59639 16.22147,-144.59639zm-280.06866,462.95936c0,0 22.18038,82.49208 32.77399,102.87986c10.92466,20.07412 27.80824,59.28138 27.80824,59.28138c0,0 -62.56853,4.07756 -97.65988,-26.34728c-35.09135,-30.11118 -94.68042,-122.64032 -107.26034,-150.86955c-12.91097,-28.22923 -36.0845,-115.73984 -38.40185,-159.02466c-1.9863,-43.28482 5.29681,-85.315 5.29681,-85.315c0,0 48.99546,116.68081 71.17584,149.92857c22.51143,33.24776 106.26719,109.46668 106.26719,109.46668zm-411.16463,-54.26285c0,0 104.28089,69.6321 151.95215,98.8023c48.00231,29.1702 152.9453,79.3555 168.83572,91.27451c15.89042,12.23267 52.30597,32.30678 81.76946,39.52092c29.79454,6.90048 98.98408,41.08921 98.98408,41.08921l-96.66673,-10.03706c0,0 -12.91097,23.2107 0,48.30335c12.57992,25.09265 74.1553,130.79543 91.36992,144.91004c16.88357,14.11461 47.67126,48.30335 47.67126,48.30335c0,0 -73.16215,0 -129.44072,-20.07412c-56.27857,-20.07412 -181.74669,-69.31844 -225.44534,-107.58473c-43.36761,-38.26629 -115.5366,-115.73984 -143.34484,-174.08025c-27.47719,-58.65407 -45.68496,-200.42753 -45.68496,-200.42753zm-161.22156,282.91961c0,0 117.85395,55.20383 147.64849,70.25941c29.79454,15.05559 87.06626,51.43993 142.35168,64.61357c54.95437,12.85998 159.23526,35.12971 159.23526,35.12971c0,0 36.0845,29.1702 77.4658,39.20726c41.3813,10.03706 101.96353,23.2107 101.96353,23.2107c0,0 -79.78315,11.91901 -95.67357,15.99656c-15.89042,4.07756 -53.96122,7.21414 -64.55483,15.05559c-10.59361,8.15511 -16.22147,17.2512 -16.22147,17.2512c0,0 -151.6211,-33.24776 -191.0161,-42.34384c-39.395,-9.09608 -165.85627,-71.51405 -196.64396,-108.5257c-30.78769,-37.32531 -64.55483,-129.85445 -64.55483,-129.85445zm-58.59593,293.58398c0,0 160.55946,25.40631 270.79925,29.48386c110.57084,3.7639 256.23303,-21.32875 256.23303,-21.32875c0,0 20.19408,39.20726 37.07765,54.26285c16.88357,15.05559 87.06626,81.55111 101.96353,87.51061c14.89727,6.27316 44.69181,23.2107 44.69181,23.2107c0,0 -61.57538,37.32531 -100.97038,46.4214c-39.395,9.09608 -93.35622,23.2107 -93.35622,23.2107c0,0 -9.60046,29.1702 -36.41555,26.03362c-26.48403,-3.13658 -235.70791,-13.17364 -305.8906,-53.32188c-69.85164,-40.14824 -153.93845,-115.73984 -168.83572,-161.84758c-14.89727,-46.4214 -5.29681,-53.63554 -5.29681,-53.63554zm75.4795,366.35266c0,0 47.67126,-0.94097 128.44757,-7.84145c80.7763,-7.21414 319.79472,-57.39943 319.79472,-57.39943c0,0 29.79454,26.9746 50.98177,41.08921c21.18723,14.11461 46.67811,31.36581 46.67811,31.36581c0,0 -70.18269,42.03019 -192.3403,55.20383c-122.15761,13.17364 -232.3974,-5.9595 -264.17824,-16.93754c-32.11189,-11.29169 -89.38362,-45.48042 -89.38362,-45.48042zm569.40674,15.05559l130.43387,36.38434c0,0 -65.87904,46.10774 -71.17584,56.45846c-5.29681,10.03706 -57.27172,56.1448 -80.44525,71.20039c-23.50458,15.05559 -39.395,38.26629 -39.395,38.26629c0,0 70.18269,47.36237 99.64618,55.51748c29.79454,7.84145 58.59593,11.91901 58.59593,11.91901c0,0 -106.26719,78.41453 -246.30152,83.43306c-140.36538,5.33219 -269.8061,-1.88195 -328.40203,-30.11118c-58.26488,-28.22923 -151.95215,-105.70278 -151.95215,-105.70278c0,0 42.70551,-1.88195 139.37223,-25.09265c96.66673,-23.2107 173.13937,-42.34384 246.30152,-70.25941c73.16215,-28.22923 243.32207,-122.013 243.32207,-122.013zm147.64849,276.9601c0,0 -84.08681,41.08921 -123.48181,61.16333c-39.06395,20.38778 -76.1416,29.1702 -114.54345,38.26629c-38.0708,9.09608 -80.7763,25.09265 -117.85395,42.34384c-37.07765,17.2512 -81.76946,31.05215 -163.53891,44.22579c-81.76946,13.17364 -240.01156,23.2107 -240.01156,23.2107c0,0 73.16215,58.34041 125.13706,66.49552c52.30597,7.84145 216.83803,-16.31022 287.02072,-38.26629c69.85164,-22.26973 234.71476,-106.64375 265.50245,-134.87298c30.78769,-28.22923 81.76946,-103.82083 81.76946,-102.5662zm37.07765,-6.27316l77.4658,-1.88195c0,0 -43.36761,76.53258 -59.58908,90.64719c-15.89042,14.11461 -53.96122,67.43649 -53.96122,67.43649c0,0 28.47034,36.07068 81.76946,31.99313c52.96807,-3.7639 124.14391,-7.84145 163.53891,-21.01509c39.395,-13.17364 70.18269,-22.26973 70.18269,-22.26973l-15.89042,58.34041c0,0 -124.47496,100.68425 -165.85627,132.05006c-41.3813,31.05215 -177.44303,134.87298 -356.87236,170.94367c-179.42933,36.38434 -269.8061,5.9595 -318.47051,-2.82292c-48.99546,-9.09608 -116.8608,-57.39943 -116.8608,-57.39943c0,0 312.18056,-119.8174 405.53678,-178.1578c93.68727,-58.34041 155.26265,-100.68425 206.24442,-152.12418c50.98177,-51.12627 82.76261,-115.73984 82.76261,-115.73984zm241.00471,250.61282c0,0 -88.05941,74.65063 -115.5366,100.68425c-27.80824,26.34728 -126.46126,131.7364 -165.85627,175.02122c-39.395,43.28482 -152.9453,133.93201 -195.31975,159.96563c-42.70551,26.34728 -167.84257,68.69112 -167.84257,68.69112c0,0 172.14622,15.99656 256.89513,-20.38778c85.07996,-36.07068 172.14622,-97.54767 230.4111,-140.83249c58.59593,-43.28482 105.27404,-110.72131 129.77177,-149.92857c24.49773,-39.20726 55.28542,-95.66572 55.28542,-95.66572c0,0 -21.51828,2.19561 -34.09819,1.25463c-12.91097,-1.25463 -26.48403,-18.19217 -26.48403,-18.19217l32.77399,-80.61013zm575.36565,-111.03497c0,0 -25.15983,37.32531 -38.0708,57.08577c-13.24202,20.07412 -46.34706,62.1043 -46.34706,62.1043c0,0 1.9863,75.27794 -4.96576,129.5408c-6.95206,54.26285 -55.28542,171.57098 -55.28542,171.57098c0,0 85.41101,-33.24776 119.50921,-86.56964c34.42924,-53.63554 49.32651,-109.78034 53.29912,-133.61835c4.30366,-23.83802 5.29681,-64.61357 5.29681,-64.61357c0,0 -12.24887,-35.44337 -18.20777,-61.16333c-5.95891,-25.71996 -16.22147,-59.9087 -15.22832,-74.33697zm-113.5503,165.92514c0,0 -31.11874,25.71996 -64.55483,45.79408c-33.10504,20.07412 -68.19639,35.12971 -68.19639,35.12971c0,0 -35.4224,66.80918 -43.36761,98.17499c-7.94521,31.36581 -27.14614,108.83936 -45.35391,155.26076c-17.87672,46.73506 -43.03656,110.72131 -43.03656,110.72131c0,0 60.25118,-28.54289 100.63933,-75.27794c40.0571,-46.73506 74.1553,-116.36716 98.32198,-171.57098c24.16668,-55.20383 65.54799,-198.23192 65.54799,-198.23192zm-194.3266,-65.8682c0,0 -24.16668,21.95607 -52.30597,41.08921c-28.13929,19.13314 -89.38362,43.91213 -108.58454,49.55798c-19.20092,5.64585 -50.31967,15.99656 -50.31967,15.99656c0,0 -57.27172,131.7364 -113.5503,202.30948c-56.27857,70.57307 -131.75807,157.14271 -162.21471,188.50852c-30.12559,31.67947 -86.40416,73.396 -86.40416,73.396c0,0 88.72152,9.7234 157.91106,-5.64585c69.52059,-15.05559 125.79916,-25.71996 192.3403,-73.396c66.21009,-47.67603 155.92475,-153.37881 182.07774,-188.50852c26.15298,-35.44337 26.15298,-55.51748 38.0708,-79.3555c12.24887,-23.83802 42.37446,-65.55454 42.37446,-65.55454c0,0 -21.18723,5.64585 -43.36761,9.40974c-22.18038,3.7639 -27.14614,-2.82292 -27.14614,-2.82292c0,0 16.22147,-43.91213 18.20777,-67.75015c1.9863,-23.83802 12.91097,-97.23401 12.91097,-97.23401zm-698.18536,1195.03737l24.49773,-49.55798c0,0 -19.53198,-3.13658 -48.99546,0.94097c-29.79454,4.07756 -64.22378,36.698 -55.61647,33.87508c8.93836,-2.50926 33.43609,-0.31366 43.69866,2.19561c10.26256,2.50926 36.41555,12.54632 36.41555,12.54632zm-83.75576,201.99582l15.22832,49.55798c0,0 -25.82193,3.13658 -39.395,9.7234c-13.90412,6.58682 -37.73975,22.26973 -37.73975,22.26973c0,0 2.6484,-24.46533 11.25571,-43.91213c8.27626,-19.76046 49.65756,-40.77555 50.65072,-37.63897zm210.21702,221.75628l38.7329,13.4873c0,0 -17.21462,27.60191 -22.18038,37.01166c-5.29681,9.7234 -5.62786,37.95263 -4.63471,39.83458c0,0 -27.14614,-26.34728 -25.49088,-49.87164c1.65525,-23.2107 13.57307,-40.4619 13.57307,-40.4619zm399.90892,-174.3939l23.17353,-50.81261c0,0 44.69181,24.77899 43.03656,52.06724c-1.65525,27.28825 -25.82193,53.94919 -25.82193,53.94919c0,0 -2.6484,-27.28825 -12.24887,-37.63897c-9.26941,-10.66438 -28.13929,-17.56485 -28.13929,-17.56485zm218.49328,-627.00255c0,0 38.7329,-15.99656 81.76946,-32.62044c43.03656,-16.31022 90.04572,-48.30335 90.04572,-48.30335c0,0 -27.47719,68.69112 -30.45664,92.8428c-2.6484,24.15167 -4.63471,75.90526 -4.63471,75.90526l-498.893,409.01017c0,0 18.20777,15.36925 32.77399,14.11461c14.89727,-1.56829 22.18038,-3.13658 39.06395,2.50926c16.55252,5.33219 20.19408,14.11461 36.7466,17.87851c16.22147,3.45024 48.66441,6.27316 45.35391,17.87851c-2.97945,11.29169 -26.15298,98.17499 -61.24433,90.64719c-35.09135,-7.21414 -25.15983,-30.73849 -38.7329,-35.75702c-13.57307,-4.70487 -20.52513,6.58682 -36.0845,-0.31366c-15.89042,-6.90048 -60.58223,-47.36237 -86.07311,-38.8936c-25.82193,8.46877 -57.27172,21.01509 -72.50004,74.65063c-15.22832,53.63554 -3.97261,61.47699 -6.62101,76.84624c-2.6484,15.36925 -18.53882,32.9341 -18.53882,32.9341c0,0 11.58677,35.75702 -0.99315,49.55798c-12.57992,14.11461 -45.02286,10.35072 -63.89273,2.19561c-18.86987,-8.46877 -48.66441,-34.81605 -43.03656,-49.87164c5.62786,-14.74193 27.80824,-19.4468 36.7466,-31.67947c8.93836,-12.54632 7.94521,-28.22923 25.49088,-47.67603c17.87672,-19.4468 31.11874,-41.40287 34.7603,-55.83114c3.64155,-14.42827 0,-39.20726 0,-39.20726c0,0 -35.09135,0 -65.54799,10.03706c-30.45664,10.03706 -41.05025,23.83802 -67.53429,32.62044c-26.81508,9.09608 -48.33336,1.56829 -48.33336,1.56829c0,0 -20.85618,32.30678 -36.0845,37.32531c-15.22832,5.01853 -39.395,-17.2512 -47.67126,-49.24432c-8.60731,-31.67947 -15.22832,-58.96772 4.96576,-65.8682c20.52513,-7.21414 38.40185,3.45024 51.64387,1.88195c12.91097,-1.56829 99.97723,-5.33219 121.49551,-8.46877c21.51828,-3.13658 68.85849,-10.03706 72.83109,-29.1702c4.30366,-19.4468 -56.94067,-46.73506 -77.13475,-54.26285c-19.86303,-7.52779 -59.58908,-26.9746 -59.58908,-26.9746c0,0 -21.18723,0 -39.395,-7.21414c-18.20777,-7.52779 -8.27626,-27.28825 -5.62786,-34.50239c2.6484,-6.90048 23.83563,-42.03019 29.13244,-48.93066c5.29681,-7.21414 17.54567,-16.93754 33.76714,-8.46877c16.22147,8.46877 34.09819,28.54289 43.36761,33.24776c9.60046,4.39121 24.82878,12.23267 38.40185,23.83802c13.57307,11.29169 25.15983,34.81605 40.38815,46.73506c15.22832,11.91901 51.64387,58.96772 136.06173,-7.52779c84.41786,-66.49552 237.69421,-222.06994 280.73076,-267.2367c43.03656,-45.16677 133.08227,-156.20173 133.08227,-156.20173zm738.90456,1092.47117c0,0 18.86987,232.107 24.49773,282.60595c5.62786,50.1853 -1.3242,149.30126 -1.3242,149.30126c0,0 -90.37677,-68.06381 -100.30828,-163.10221c-10.26256,-95.0384 -8.60731,-135.81396 2.6484,-158.711c11.58677,-23.2107 17.21462,-20.38778 40.38815,-54.26285c22.84248,-34.18873 34.09819,-55.83114 34.09819,-55.83114zm0,-115.42618c0,0 -41.3813,139.89151 -91.70097,184.74462c-49.98861,44.85311 -101.63248,99.11596 -193.33345,97.86133c-91.70097,-1.56829 -132.08912,-47.67603 -143.34484,-70.88673c-11.58677,-22.89704 -20.19408,-77.15989 -20.19408,-77.15989c0,0 78.79,20.38778 163.53891,5.33219c84.41786,-15.05559 145.99324,-75.90526 176.11883,-142.71444c30.12559,-66.49552 43.03656,-141.14615 47.34021,-169.68903c4.30366,-28.54289 0,-66.49552 0,-66.49552c0,0 -94.34937,53.00822 -137.38593,101.93888c-43.03656,48.93066 -50.31967,92.21548 -41.71235,119.50374c8.60731,26.9746 24.49773,57.08577 24.49773,57.08577c0,0 -50.31967,10.66438 -66.21009,-4.07756c-15.55937,-15.05559 -68.52744,-36.698 -61.57538,-115.42618c7.28311,-79.04184 28.80139,-92.52914 83.09366,-134.55933c54.62332,-42.03019 136.39278,-107.27107 136.39278,-107.27107c0,0 -174.79463,100.37059 -232.3974,103.19352c-57.27172,2.82292 -145.99324,-12.23267 -193.33345,-89.70622c-47.34021,-77.47355 -5.95891,-143.96907 15.55937,-179.09878c21.51828,-35.44337 47.34021,-54.57651 47.34021,-54.57651c0,0 7.28311,66.80918 43.03656,103.19352c35.75345,36.698 99.97723,72.14136 179.09828,53.00822c79.4521,-18.81949 139.04118,-63.67259 175.12568,-122.013c35.75345,-58.65407 67.53429,-240.88942 67.53429,-240.88942l22.51143,748.70189zm-302.24904,-211.71922c0,0 -106.26719,31.05215 -148.97269,50.1853c-43.03656,18.81949 -143.34484,26.9746 -219.48644,63.67259c-75.81055,36.698 -90.37677,119.50374 -91.70097,146.79199c-1.3242,26.9746 28.80139,93.78377 28.80139,93.78377c0,0 5.62786,-53.00822 55.61647,-68.06381c50.31967,-14.74193 84.74891,-21.64241 139.04118,-31.05215c54.62332,-9.7234 136.39278,-17.87851 160.55946,-77.47355c24.49773,-59.9087 10.26256,-59.9087 21.51828,-90.96085c11.58677,-31.36581 54.62332,-86.88329 54.62332,-86.88329zm163.20786,-779.12673c0,0 8.60731,26.34728 16.22147,49.87164c7.61416,23.52436 5.29681,83.74671 19.53198,83.74671c13.90412,0 95.67357,-67.43649 95.67357,-67.43649c0,0 -2.31735,102.87986 -6.62101,123.26763c-4.30366,20.38778 -30.12559,40.77555 -57.93383,65.24089c-28.13929,24.46533 -73.4932,74.02331 -113.5503,112.91692c-40.38815,39.20726 -52.30597,86.88329 -38.0708,108.5257c13.90412,21.32875 38.0708,51.43993 38.0708,51.43993c0,0 -137.05488,20.70143 -174.79463,-16.93754c-37.73975,-37.63897 -60.25118,-106.01644 -22.51143,-164.04319c37.4087,-58.02675 95.67357,-117.30813 130.10282,-153.06515c34.42924,-35.44337 63.56168,-59.9087 80.7763,-91.58817c17.21462,-31.67947 33.10504,-101.93888 33.10504,-101.93888zm74.48635,-350.66976c0,0 -8.60731,52.06724 -25.82193,100.99791c-17.21462,48.93066 -51.64387,97.86133 -57.27172,123.26763c-5.29681,25.40631 6.62101,75.27794 16.22147,99.74328c9.60046,24.46533 29.13244,47.98969 34.42924,73.396c5.29681,25.71996 3.3105,52.06724 3.3105,52.06724c0,0 31.11874,-12.23267 44.02971,-40.77555c12.91097,-28.54289 50.65072,-115.11252 53.96122,-137.69591c2.97945,-22.26973 -1.3242,-75.27794 -2.31735,-98.8023c-0.99315,-23.52436 -25.82193,-43.91213 -35.4224,-79.3555c-9.60046,-35.75702 -31.11874,-92.8428 -31.11874,-92.8428zm33.10504,-201.99582c0,0 -33.10504,68.37747 -26.81508,112.2896c6.62101,43.91213 8.60731,95.66572 22.51143,123.26763c14.23517,27.60191 16.22147,32.62044 23.83563,43.91213c7.61416,11.29169 14.89727,19.4468 14.89727,19.4468l9.93151,-175.33488l-44.36076,-123.58129zm32.44294,-357.57024c0,0 -5.29681,29.48386 -17.21462,57.08577c-11.91782,27.28825 -25.82193,57.08577 -32.44294,91.58817c-6.28996,34.81605 -11.58677,89.70622 6.62101,134.55933c18.20777,44.85311 55.94752,105.07546 59.25803,123.26763c2.97945,18.50583 28.80139,-323.06785 28.80139,-323.06785c0,0 -13.90412,-44.85311 -22.51143,-58.96772c-8.60731,-14.42827 -22.51143,-24.46533 -22.51143,-24.46533zm-43.03656,-192.89973c0,0 -34.42924,73.396 -56.94067,100.05693c-22.84248,26.34728 -86.73521,75.27794 -86.73521,75.27794c0,0 5.95891,103.19352 15.55937,136.75493c9.60046,33.56142 31.11874,100.99791 31.11874,100.99791c0,0 61.57538,-71.51405 73.16215,-105.07546c11.91782,-33.56142 55.94752,-119.19008 53.96122,-145.85102c-2.31735,-26.34728 -33.43609,-159.96563 -30.12559,-162.16124zm-191.6782,-47.98969c0,0 -41.71235,28.85655 -68.19639,51.43993c-26.15298,22.58338 -32.11189,30.73849 -61.24433,49.24432c-28.80139,18.50583 -74.8174,31.36581 -86.73521,63.04528c-11.91782,31.36581 -1.65525,88.45158 5.95891,132.99104c7.61416,44.22579 29.13244,137.06859 29.13244,137.06859c0,0 35.75345,-16.93754 55.94752,-69.31844c20.52513,-52.3809 23.83563,-79.04184 37.4087,-116.0535c13.57307,-37.32531 37.4087,-58.96772 47.00916,-88.13793c9.26941,-28.85655 3.3105,-37.63897 13.57307,-74.96429c10.26256,-37.01166 27.14614,-85.315 27.14614,-85.315zm-37.4087,199.80021c0,0 4.30366,37.32531 8.60731,52.3809c4.30366,15.36925 6.62101,37.95263 6.62101,37.95263c0,0 23.17353,-21.64241 35.09135,-32.30678c11.91782,-10.35072 18.53882,-17.56485 18.53882,-17.56485c0,0 7.61416,37.01166 -0.6621,77.47355c-8.60731,40.14824 -5.29681,30.42484 -8.60731,66.80918c-3.3105,36.38434 -11.91782,123.26763 -16.88357,154.9471c-5.29681,31.36581 -23.17353,84.37403 -29.79454,111.97594c-6.95206,27.28825 -29.13244,72.45502 -29.13244,72.45502c0,0 -19.53198,-18.50583 -33.10504,-57.08577c-13.57307,-38.8936 -30.78769,-74.33697 -38.40185,-97.54767c-7.61416,-23.52436 -22.18038,-61.47699 -27.14614,-86.25598c-4.96576,-25.09265 10.26256,-33.87508 28.80139,-71.20039c18.86987,-37.01166 33.43609,-72.45502 40.0571,-100.68425c6.95206,-28.22923 46.01601,-111.34863 46.01601,-111.34863zm85.41101,170.31635c0,0 9.93151,55.51748 14.23517,70.88673c4.30366,15.36925 20.19408,63.67259 20.19408,63.67259c0,0 34.09819,-29.79752 47.67126,-46.73506c13.90412,-16.93754 30.78769,-40.4619 30.78769,-40.4619c0,0 -5.95891,34.81605 -4.96576,51.75359c0.6621,16.93754 2.31735,33.87508 9.26941,52.3809c6.62101,18.50583 16.88357,20.07412 12.57992,50.81261c-3.97261,30.73849 -19.53198,71.82771 -30.45664,98.48864c-11.25571,26.34728 -54.62332,68.37747 -54.62332,68.37747c0,0 -19.53198,-68.06381 -32.11189,-92.8428c-12.57992,-24.46533 -39.395,-86.88329 -37.4087,-119.19008c1.65525,-32.30678 13.57307,-63.04528 12.57992,-80.61013c-0.6621,-17.87851 12.24887,-76.53258 12.24887,-76.53258zm-34.42924,229.59773c0,0 -9.26941,28.22923 -16.88357,51.75359c-7.61416,23.2107 -23.83563,47.67603 -24.82878,76.53258c-0.6621,29.1702 13.57307,100.68425 32.44294,144.28273c18.86987,43.59848 53.63017,129.85445 53.63017,129.85445c0,0 46.67811,-51.43993 55.28542,-80.61013c8.60731,-29.1702 33.10504,-88.76524 36.7466,-119.19008c3.3105,-30.73849 7.61416,-94.41109 7.61416,-94.41109c0,0 -6.95206,10.35072 -23.83563,24.15167c-17.21462,13.80096 -48.66441,37.95263 -48.66441,37.95263c0,0 -15.55937,-26.66094 -26.15298,-50.1853c-10.92466,-23.2107 -9.60046,-38.57995 -16.22147,-56.45846c-6.95206,-17.56485 -29.13244,-63.67259 -29.13244,-63.67259zm-148.64164,5.9595c0,0 23.50458,44.53945 32.44294,73.396c8.93836,29.1702 21.84933,51.43993 29.46349,65.55454c7.94521,13.80096 15.89042,-9.40974 22.84248,2.82292c6.95206,11.91901 6.95206,51.12627 14.56622,77.15989c7.94521,26.34728 28.80139,49.55798 30.78769,70.88673c1.65525,21.64241 1.65525,47.67603 -20.85618,85.94232c-22.51143,38.26629 -73.82425,107.27107 -120.17131,142.71444c-46.01601,35.44337 -89.38362,53.94919 -123.81286,91.27451c-34.42924,37.32531 -57.27172,75.5916 -57.27172,75.5916c0,0 -13.57307,-49.24432 -11.91782,-88.45158c1.9863,-39.20726 26.81508,-116.68081 37.4087,-137.06859c10.92466,-20.70143 20.85618,-45.79408 20.85618,-45.79408c0,0 -26.48403,26.03362 -61.90643,43.91213c-35.4224,17.56485 -57.27172,28.85655 -100.63933,43.59848c-43.36761,15.05559 -99.31513,30.73849 -99.31513,30.73849c0,0 12.91097,-41.71653 34.42924,-65.24089c21.51828,-23.2107 44.36076,-63.35894 57.27172,-90.33353c12.57992,-26.9746 33.43609,-70.88673 76.47265,-127.03153c43.36761,-55.83114 102.62563,-130.48177 139.04118,-164.04319c36.41555,-33.56142 100.30828,-85.62866 100.30828,-85.62866z" class="fil7"/>
    <path stroke="null" id="svg_58" d="m2881.06116,816.45187c0,0 21.51828,-5.01853 40.7192,-3.45024c18.86987,1.56829 37.73975,7.84145 37.73975,7.84145c0,0 -9.26941,47.04872 -39.06395,42.34384c-29.46349,-5.01853 -39.395,-46.73506 -39.395,-46.73506z" class="fil7"/>
    <path stroke="null" id="svg_59" d="m3893.74442,2385.3697l269.144,-14.74193c8.93836,-0.31366 16.88357,6.27316 17.21462,14.74193l3.97261,63.67259c0.6621,8.78243 -6.28996,16.31022 -15.55937,16.62388l-268.81295,14.74193c-9.26941,0.62732 -17.21462,-5.9595 -17.54567,-14.74193l-3.97261,-63.67259c-0.6621,-8.46877 6.62101,-15.99656 15.55937,-16.62388zm128.11652,-452.9223c26.81508,0 48.66441,20.38778 48.66441,45.79408c0,25.40631 -21.84933,46.10774 -48.66441,46.10774c-26.81508,0 -48.66441,-20.70143 -48.66441,-46.10774c0,-25.40631 21.84933,-45.79408 48.66441,-45.79408zm-50.65072,-221.75628l-0.6621,204.50508l76.1416,-9.40974l-25.82193,-201.05484c-3.3105,-32.30678 -49.65756,-20.70143 -49.65756,5.9595z" class="fil5"/>
    <path stroke="null" id="svg_60" d="m3065.45625,3546.53199c18.53882,0 33.43609,14.11461 33.43609,31.67947c0,17.56485 -14.89727,31.99313 -33.43609,31.99313c-18.53882,0 -33.43609,-14.42827 -33.43609,-31.99313c0,-17.56485 14.89727,-31.67947 33.43609,-31.67947z" class="fil5 str0"/>
   </g>
  </g>
 </g>
</svg>