<?xml version="1.0" standalone="no"?>
<!DOCTYPE svg PUBLIC "-//W3C//DTD SVG 20010904//EN"
 "http://www.w3.org/TR/2001/REC-SVG-20010904/DTD/svg10.dtd">
<svg version="1.0" xmlns="http://www.w3.org/2000/svg"
 width="600.000000pt" height="600.000000pt" viewBox="0 0 600.000000 600.000000"
 preserveAspectRatio="xMidYMid meet">
<metadata>
Created by potrace 1.14, written by Peter Selinger 2001-2017
</metadata>
<g transform="translate(0.000000,600.000000) scale(0.100000,-0.100000)"
fill="#000000" stroke="none">
<path d="M3096 5867 c-61 -17 -142 -57 -156 -77 -3 -4 -32 -22 -65 -40 -33
-17 -71 -45 -85 -61 l-25 -28 -50 24 c-28 13 -70 26 -95 29 -93 10 -212 -35
-247 -94 -12 -21 -27 -31 -53 -36 -107 -16 -222 -127 -246 -235 -29 -133 2
-277 75 -343 l22 -20 -55 -17 c-135 -41 -235 -133 -271 -248 -4 -13 -27 -48
-51 -77 -84 -104 -90 -213 -20 -353 l27 -52 -25 7 c-41 10 -89 -13 -136 -65
l-44 -48 -33 32 c-164 159 -411 207 -562 110 -126 -81 -178 -303 -108 -466 20
-47 65 -104 106 -134 19 -14 30 -25 23 -25 -6 0 -25 -13 -41 -29 -16 -16 -46
-31 -68 -35 -129 -24 -223 -119 -223 -227 0 -26 -8 -52 -22 -71 -45 -64 -40
-168 9 -206 16 -11 14 -18 -19 -80 -58 -108 -82 -200 -82 -322 0 -95 3 -114
33 -195 18 -49 35 -97 38 -106 3 -11 -9 -26 -34 -45 -92 -66 -143 -201 -100
-267 7 -12 12 -31 10 -42 -13 -58 -14 -150 -3 -190 22 -77 70 -110 135 -93 17
5 55 11 86 14 55 6 57 5 75 -25 14 -23 28 -33 55 -37 36 -6 36 -6 32 -48 -7
-56 17 -102 54 -110 16 -3 44 -8 63 -11 19 -4 38 -9 42 -13 3 -4 0 -50 -8
-102 -17 -103 -13 -179 9 -211 40 -57 137 -99 178 -78 13 7 24 -3 51 -44 51
-78 52 -84 15 -93 -69 -15 -115 -74 -101 -132 9 -35 58 -108 104 -152 20 -19
40 -47 43 -62 7 -28 42 -67 61 -69 6 0 22 -3 36 -7 14 -3 61 -6 105 -6 70 0
87 3 126 26 62 36 93 80 134 187 66 175 71 225 31 345 -42 125 -32 145 17 35
199 -440 516 -771 930 -968 175 -83 219 -86 367 -23 372 158 707 469 910 847
24 44 45 82 46 84 2 2 16 -3 33 -10 l29 -13 -29 -42 c-31 -45 -50 -112 -53
-184 -5 -117 48 -220 148 -285 23 -16 121 -46 128 -40 2 2 19 5 38 8 43 5 96
31 103 50 3 8 22 18 43 22 77 14 180 99 211 174 27 63 9 118 -50 157 -23 15
-52 37 -65 50 l-23 22 24 39 c14 21 35 45 48 53 50 31 169 158 212 225 57 90
89 168 112 277 10 48 22 85 26 82 5 -3 25 -1 44 5 36 10 50 6 140 -34 45 -19
92 -8 119 29 52 68 88 173 88 253 0 27 7 44 28 64 77 78 25 232 -92 269 -75
24 -73 15 -30 170 12 41 25 100 29 130 17 131 -6 308 -52 407 -16 33 -24 61
-19 71 22 52 25 124 8 183 -11 36 -12 59 -4 94 29 131 -79 248 -255 277 l-63
11 23 36 c19 28 71 156 64 156 0 0 3 23 7 50 11 72 11 82 -8 168 -31 148 -108
226 -254 259 -63 14 -102 15 -180 3 -73 -11 -130 -42 -181 -100 l-46 -52 -25
24 -25 23 27 38 c61 88 88 239 62 339 -18 68 -31 88 -69 112 -20 12 -45 42
-61 72 -14 28 -26 52 -26 54 0 1 24 21 54 44 115 89 166 278 122 456 -15 57
-22 76 -48 117 -33 52 -93 93 -153 103 -22 4 -74 18 -115 32 -148 50 -320 29
-446 -56 l-44 -30 -9 37 c-15 58 -25 97 -26 102 0 3 -9 28 -18 55 -24 71 -81
137 -152 179 -99 59 -249 76 -369 43z m-486 -1553 c1 -5 -42 -41 -95 -79 -55
-39 -120 -98 -132 -119 -7 -11 -12 -39 -11 -61 0 -22 -11 -76 -25 -120 -14
-44 -27 -87 -28 -95 -4 -24 12 -90 23 -96 24 -15 -86 -62 -165 -70 -84 -8
-114 27 -90 105 8 25 16 63 19 84 7 45 -12 131 -32 148 -16 13 -19 33 -3 24 5
-4 33 -7 60 -7 113 1 291 125 318 222 7 25 12 49 11 54 -1 4 27 22 62 40 l63
31 12 -27 c7 -16 13 -31 13 -34z m1156 -107 c20 -62 43 -90 105 -124 l46 -25
-22 -24 c-41 -44 -53 -138 -40 -311 2 -24 -1 -43 -7 -43 -13 0 -50 20 -67 37
-7 8 -26 22 -40 31 -61 40 -139 116 -183 180 l-29 42 21 57 c14 37 19 70 16
98 -4 41 -3 42 31 51 36 9 72 45 77 77 1 9 11 24 22 32 17 13 21 12 36 -6 9
-10 24 -43 34 -72z m-2041 -2654 c7 -31 4 -29 -62 37 l-69 70 27 58 c16 31 31
75 35 97 7 37 10 29 35 -95 15 -74 30 -150 34 -167z m2587 31 c-25 -20 -29
-17 -24 16 4 30 5 30 23 14 18 -16 18 -18 1 -30z m-2517 -264 c8 -24 7 -24
-17 5 -22 26 -28 54 -18 85 1 5 20 -43 35 -90z"/>
</g>
</svg>
